<svg height="32" version="1.1" width="32" xmlns="http://www.w3.org/2000/svg" xmlns:xlink="http://www.w3.org/1999/xlink">
  <linearGradient id="a" gradientUnits="userSpaceOnUse" x1="15.10389087599" x2="17.26433087599" y1="1036.062522" y2="1041.074475">
    <stop offset="0" stop-color="#f00"/>
    <stop offset="1" stop-color="#8e2626"/>
  </linearGradient>
  <linearGradient id="b" gradientUnits="userSpaceOnUse" x1="17.000000590103" x2="12.036606590103" y1="1045.3622" y2="1038.686215">
    <stop offset="0" stop-color="#b8a100"/>
    <stop offset="1" stop-color="#fdd235"/>
  </linearGradient>
  <linearGradient id="c" gradientUnits="userSpaceOnUse" x1="24.220133590103" x2="22.883749590103" y1="1030.0349676" y2="1028.9095652">
    <stop offset="0" stop-color="#996800"/>
    <stop offset="1" stop-color="#e7bf6a"/>
  </linearGradient>
  <g stroke="#000" stroke-width=".49999997" transform="translate(0 -1020.3622)">
    <g stroke-linecap="round">
      <path d="m 16.799394 1035.4291 c 0 0 13.171359 -15.5325 14.465731 -14.4349 c 1.294371 1.0977 -11.876987 16.6301 -11.876987 16.6301" fill="url(#c)" stroke-linejoin="round"/>
      <path d="m 15.505022 1034.3315 l 5.177488 4.3904 c -7.044856 3.9756 -7.494544 11.452 -9.78014 12.8454 c -2.2855966 1.3933 -11.3542083 -6.2906 -10.35497436 -8.7809 c .99923396 -2.4904 13.05753836 -2.2782 14.95762636 -8.4549 z" fill="url(#b)" stroke-linejoin="round"/>
      <path d="m 5.9216413 1049.5688 c 2.1385545 -2.8897 3.9001709 -4.2369 5.5864457 -5.2759" fill="none"/>
      <path d="m 2.038526 1046.2759 c 4.4857637 -2.9149 5.5802207 -3.1434 6.8808171 -4.1782" fill="none"/>
    </g>
    <path d="m 13.754575 1035.7754 c 1.129189 .053 5.485762 3.6546 5.43234 4.7839 c -.05342 1.1291 -.05342 1.1291 -1.18263 1.0757 c -1.129188 -.053 -5.485759 -3.6547 -5.432339 -4.7839 c .01266 -.2673 .05343 -1.1292 1.182629 -1.0757 z" fill="url(#a)"/>
  </g>
</svg>
