<svg height="48" version="1.1" width="48" xmlns="http://www.w3.org/2000/svg" xmlns:xlink="http://www.w3.org/1999/xlink">
  <linearGradient id="a" gradientUnits="userSpaceOnUse" x1="13.000000375057" x2="36.000000075057" y1="1006.36220030229" y2="1050.36216814943">
    <stop offset="0" stop-color="#ff2a2a"/>
    <stop offset="1" stop-color="#a60000"/>
  </linearGradient>
  <path d="m 24 1017.4675 c -2.421053 0 -9.684211 -12.1053 -12.105263 -12.1053 c -2.421053 0 -10.8091528 8.1022 -10.89473703 10.8947 c -.085947 2.7926 12.10526303 9.6842 12.10526303 12.1053 c 0 2.4211 -12.10526303 9.6842 -12.10526303 12.1053 c 0 2.421 8.10215703 10.8091 10.89473703 10.8947 c 2.79258 .086 9.68421 -12.1053 12.105263 -12.1053 c 2.421053 0 9.684211 12.1053 12.105263 12.1053 c 2.421053 0 10.809153 -8.1022 10.894737 -10.8947 c .08595 -2.7926 -12.105263 -9.6842 -12.105263 -12.1053 c 0 -2.4211 12.105263 -9.6842 12.105263 -12.1053 c 0 -2.421 -8.102174 -10.8089 -10.894737 -10.8947 c -2.792563 -.086 -9.68421 12.1053 -12.105263 12.1053" fill="url(#a)" stroke="#000" stroke-linecap="round" stroke-linejoin="round" stroke-width="1.5" transform="translate(0 -1004.3622)"/>
</svg>
