<?xml version="1.0" encoding="UTF-8" standalone="no"?>
<!-- Created with Inkscape (http://www.inkscape.org/) -->

<svg
   xmlns:dc="http://purl.org/dc/elements/1.1/"
   xmlns:cc="http://creativecommons.org/ns#"
   xmlns:rdf="http://www.w3.org/1999/02/22-rdf-syntax-ns#"
   xmlns:svg="http://www.w3.org/2000/svg"
   xmlns="http://www.w3.org/2000/svg"
   xmlns:xlink="http://www.w3.org/1999/xlink"
   xmlns:inkscape="http://www.inkscape.org/namespaces/inkscape"
   width="40"
   height="45.5"
   id="svg6430"
   version="1.1"
   inkscape:version="0.91 r13725">
  <defs
     id="defs6432">
    <linearGradient
       inkscape:collect="always"
       id="linearGradient4232">
      <stop
         id="stop4236"
         offset="0"
         style="stop-color:#493100;stop-opacity:1" />
      <stop
         style="stop-color:#9e6b00;stop-opacity:1;"
         offset="0.55377197"
         id="stop4242" />
      <stop
         id="stop4234"
         offset="1"
         style="stop-color:#f3a500;stop-opacity:1" />
    </linearGradient>
    <linearGradient
       inkscape:collect="always"
       id="linearGradient4224">
      <stop
         style="stop-color:#ffdb83;stop-opacity:1"
         offset="0"
         id="stop4226" />
      <stop
         style="stop-color:#ffc22c;stop-opacity:1"
         offset="1"
         id="stop4228" />
    </linearGradient>
    <linearGradient
       inkscape:collect="always"
       xlink:href="#linearGradient3870"
       id="linearGradient3222"
       gradientUnits="userSpaceOnUse"
       gradientTransform="matrix(1.0946105,0,0,1.0584535,-2.2395592,-61.199498)"
       x1="14.971689"
       y1="1009.0383"
       x2="31.048389"
       y2="1052.0463" />
    <linearGradient
       id="linearGradient3870">
      <stop
         style="stop-color:#93a8b1;stop-opacity:1;"
         offset="0"
         id="stop3872" />
      <stop
         style="stop-color:#5e7782;stop-opacity:1;"
         offset="1"
         id="stop3874" />
    </linearGradient>
    <radialGradient
       inkscape:collect="always"
       xlink:href="#linearGradient3895"
       id="radialGradient3224"
       gradientUnits="userSpaceOnUse"
       gradientTransform="matrix(0.43082834,0.00354039,-0.00517217,0.58850477,19.030294,422.62355)"
       cx="23.983387"
       cy="1030.8881"
       fx="23.983387"
       fy="1030.8881"
       r="13" />
    <linearGradient
       id="linearGradient3895">
      <stop
         style="stop-color:#333d5f;stop-opacity:1;"
         offset="0"
         id="stop3897" />
      <stop
         style="stop-color:#98aae4;stop-opacity:1;"
         offset="1"
         id="stop3900" />
    </linearGradient>
    <linearGradient
       inkscape:collect="always"
       xlink:href="#linearGradient4224"
       id="linearGradient4230"
       x1="7.5255079"
       y1="1013.835"
       x2="25.520826"
       y2="1038.1495"
       gradientUnits="userSpaceOnUse" />
    <linearGradient
       inkscape:collect="always"
       xlink:href="#linearGradient4232"
       id="linearGradient4238"
       x1="4.0243077"
       y1="1019.014"
       x2="39.482288"
       y2="1026.5029"
       gradientUnits="userSpaceOnUse" />
  </defs>
  <sodipodi:namedview
     id="base"
     pagecolor="#ffffff"
     bordercolor="#666666"
     borderopacity="1.0"
     inkscape:pageopacity="0.0"
     inkscape:pageshadow="2"
     inkscape:zoom="10.28191"
     inkscape:cx="-19.971597"
     inkscape:cy="20.282327"
     inkscape:document-units="px"
     inkscape:current-layer="layer1"
     showgrid="false"
     inkscape:window-width="1920"
     inkscape:window-height="986"
     inkscape:window-x="0"
     inkscape:window-y="27"
     inkscape:window-maximized="1"
     inkscape:snap-global="true"
     fit-margin-top="0"
     fit-margin-left="0"
     fit-margin-right="0"
     fit-margin-bottom="0">
    <inkscape:grid
       empspacing="5"
       visible="true"
       enabled="true"
       snapvisiblegridlinesonly="true"
       type="xygrid"
       id="grid6438"
       originx="-5.6533979"
       originy="-4.4892804" />
  </sodipodi:namedview>
  <metadata
     id="metadata6435">
    <rdf:RDF>
      <cc:Work
         rdf:about="">
        <dc:format>image/svg+xml</dc:format>
        <dc:type
           rdf:resource="http://purl.org/dc/dcmitype/StillImage" />
        <dc:title />
      </cc:Work>
    </rdf:RDF>
  </metadata>
  <g
     inkscape:label="Layer 1"
     inkscape:groupmode="layer"
     id="layer1"
     transform="translate(-5.6533979,-1002.3729)">
    <g
       id="g4260">
      <g
         id="g19"
         transform="matrix(0,-0.08681592,-0.09479886,0,49.389153,1047.623)" />
      <g
         id="g21"
         transform="matrix(0,-0.08681592,-0.09479886,0,49.389153,1047.623)" />
      <g
         id="g23"
         transform="matrix(0,-0.08681592,-0.09479886,0,49.389153,1047.623)" />
      <g
         id="g25"
         transform="matrix(0,-0.08681592,-0.09479886,0,49.389153,1047.623)" />
      <g
         id="g27"
         transform="matrix(0,-0.08681592,-0.09479886,0,49.389153,1047.623)" />
      <g
         id="g29"
         transform="matrix(0,-0.08681592,-0.09479886,0,49.389153,1047.623)" />
      <g
         id="g31"
         transform="matrix(0,-0.08681592,-0.09479886,0,49.389153,1047.623)" />
      <g
         id="g33"
         transform="matrix(0,-0.08681592,-0.09479886,0,49.389153,1047.623)" />
      <g
         id="g35"
         transform="matrix(0,-0.08681592,-0.09479886,0,49.389153,1047.623)" />
      <g
         id="g37"
         transform="matrix(0,-0.08681592,-0.09479886,0,49.389153,1047.623)" />
      <g
         id="g39"
         transform="matrix(0,-0.08681592,-0.09479886,0,49.389153,1047.623)" />
      <g
         id="g41"
         transform="matrix(0,-0.08681592,-0.09479886,0,49.389153,1047.623)" />
      <g
         id="g43"
         transform="matrix(0,-0.08681592,-0.09479886,0,49.389153,1047.623)" />
      <g
         id="g45"
         transform="matrix(0,-0.08681592,-0.09479886,0,49.389153,1047.623)" />
      <g
         id="g47"
         transform="matrix(0,-0.08681592,-0.09479886,0,49.389153,1047.623)" />
      <path
         id="path3"
         d="m 35.074429,1005.2704 0,24.4766 c 1.199679,0.2061 2.115436,1.1742 2.115436,2.3303 l 0,5.4372 c 0,1.1563 -0.915852,2.1242 -2.115436,2.3304 l 0,1.8603 c 0,1.3048 -1.165742,2.3724 -2.590474,2.3724 l -23.3822351,0 c -1.4247321,0 -2.5904736,-1.0676 -2.5904736,-2.3724 l 0,-36.4348 c 0,-1.3047 1.1657415,-2.3723 2.5904736,-2.3723 l 23.3822351,0 c 1.424732,0 2.590474,1.0676 2.590474,2.3723 z"
         style="fill:url(#linearGradient4238);stroke:#000000;stroke-width:0.5;stroke-miterlimit:4;stroke-dasharray:none;stroke-opacity:1;fill-opacity:1"
         inkscape:connector-curvature="0" />
      <g
         id="g4244">
        <g
           id="g4207">
          <rect
             transform="matrix(0,-1,-1,0,0,0)"
             id="rect7"
             height="23.217548"
             width="25.354416"
             style="fill:#fffbec;fill-opacity:1;stroke:#000000;stroke-width:0.2;stroke-miterlimit:4;stroke-dasharray:none;stroke-opacity:1"
             y="-44.945644"
             x="-1037.4093" />
          <g
             id="g4170"
             transform="matrix(0.51709712,0,0,0.51879927,22.349603,491.25992)">
            <path
               id="path3087-0"
               style="fill:#000000;fill-opacity:1;stroke:url(#linearGradient3222);stroke-width:1.07638013px;stroke-linecap:butt;stroke-linejoin:miter;stroke-opacity:1"
               d="m 41.019448,1031.8128 c 1.09461,-7.4092 -1.409859,-13.9208 -3.178749,-17.6889 -2.510081,-5.347 -7.959968,-7.9596 -13.599441,-7.9596 -5.639473,0 -11.270888,2.6817 -13.914689,7.858 -2.6437999,5.1762 -4.3784417,10.0764 -3.2838312,17.4856 1.0946105,7.4092 4.9476392,19.0522 16.9883552,19.0522 12.040715,0 15.893744,-11.3382 16.988355,-18.7473 z"
               inkscape:connector-curvature="0"
               sodipodi:nodetypes="sszzscs" />
            <path
               id="path3075-3"
               style="fill:#364266;fill-opacity:1;stroke:none"
               d="m 9.8011563,1034.6833 c -1.7251062,-6.6132 -1.0946105,-11.643 1.0946107,-16.9353 2.189221,-5.2922 5.473052,-9.5261 13.135326,-9.5261 7.662273,0 10.946105,4.2339 13.135326,9.5261 2.189221,5.2923 2.819716,10.3221 1.09461,16.9353 -1.725106,6.6132 -5.473052,13.7599 -14.229936,13.7599 -8.756884,0 -12.504831,-7.1467 -14.2299367,-13.7599 z"
               inkscape:connector-curvature="0"
               sodipodi:nodetypes="sscsscs" />
            <path
               id="path3851-2"
               style="fill:url(#radialGradient3224);fill-opacity:1;stroke:#9bade5;stroke-width:2.15276027;stroke-linecap:round;stroke-linejoin:round;stroke-miterlimit:4;stroke-dasharray:none;stroke-opacity:1"
               d="m 36.071808,1019.8649 c -2.302354,0.7354 -0.402094,2.8066 -1.09461,4.2338 3.283831,-1.0584 1.09461,3.1754 2.189221,2.117 m -25.176042,-6.3508 c 2.302355,0.7354 0.402095,2.8066 1.094611,4.2338 -3.2838317,-1.0584 -1.094611,3.1754 -2.189221,2.117 m 14.92173,11.0585 c 3.3994,0.1482 7.487138,0.3909 0.40977,3.3531 3.293053,2.5256 -0.120079,3.0615 -0.730298,5.3064 1.564916,-2.1772 2.161962,-6.5059 3.683172,-0.6742 -1.31662,-4.785 2.741037,-4.3264 3.152478,-2.3371 -3.54795,-6.0182 1.248673,-4.3653 3.10367,-5.2591 -6.259011,-2.0849 -1.96738,-4.7341 1.394666,-4.5182 -2.107418,0.1744 -3.387224,-0.4449 -5.190387,-1.9973 1.102967,-0.9076 0.120175,-6.3086 -1.609206,-12.684 1.411788,0.3593 2.043189,-1.2367 4.792461,-1.7397 -5.930266,0.4482 -1.583509,-6.0194 -4.225067,-3.2099 -2.319936,0.6409 -3.052484,-2.6464 -3.730433,-2.193 -0.791969,0.5297 1.292738,5.3684 -2.83723,5.3684 -4.129969,0 -1.87562,-5.3197 -2.837231,-5.3685 -0.639346,-0.033 -3.332746,3.2185 -3.730432,2.1931 -2.125089,-3.1063 2.495584,2.3023 -4.225068,3.2098 2.749272,0.5028 3.380673,2.0989 4.792461,1.7396 -1.72938,6.3755 -2.712172,11.7765 -1.609205,12.684 -1.803163,1.5525 -3.08297,2.1718 -5.190387,1.9974 3.296985,-0.1527 7.564897,3.0035 1.394665,4.5181 2.283949,0.2422 5.3738,-0.372 3.103671,5.2592 1.11306,-3.0495 4.092222,-1.0929 2.828473,2.3455 0.235285,-4.3153 1.859324,-2.7495 4.007177,0.6658 -1.498068,-2.5849 -3.381229,-5.2152 -0.730298,-5.3064 -7.791342,-0.4309 -2.232927,-4.961 0.409769,-3.3531 -0.893622,-1.665 0.547607,-1.5325 1.786405,-1.5324 1.238798,0 2.680027,-0.1325 1.786404,1.5325 z"
               inkscape:connector-curvature="0"
               sodipodi:nodetypes="ccccccccccccccccccscccccccccccccc" />
            <path
               style="fill:#57638b;fill-opacity:1;stroke:none"
               d="m 18.55804,1020.9234 c -1.09461,-1.0585 -2.243783,4.3905 -1.09461,7.4092 0.757212,-1.7642 1.612067,-3.5282 2.189221,-5.2923 0,0 0,-1.0585 -1.094611,-2.1169 z"
               id="path3942"
               inkscape:connector-curvature="0"
               sodipodi:nodetypes="zccz" />
            <path
               style="fill:#57638b;fill-opacity:1;stroke:none"
               d="m 19.652651,1019.8472 c 1.160235,2.1287 0.706587,1.7126 2.320471,3.1931 2.320471,-2.1287 -2.320471,-6.386 -2.320471,-3.1931 z"
               id="path3944"
               inkscape:connector-curvature="0"
               sodipodi:nodetypes="ccc" />
            <path
               style="fill:#57638b;fill-opacity:1;stroke:none"
               d="m 29.504145,1020.9234 c 1.094611,-1.0585 2.243783,4.3905 1.094611,7.4092 -0.757212,-1.7642 -1.612067,-3.5282 -2.189221,-5.2923 0,0 0,-1.0585 1.09461,-2.1169 z"
               id="path3942-5"
               inkscape:connector-curvature="0"
               sodipodi:nodetypes="zccz" />
            <path
               style="fill:#57638b;fill-opacity:1;stroke:none"
               d="m 28.409535,1019.8296 c -1.160236,2.1404 -0.706587,1.722 -2.320471,3.2107 -2.320471,-2.1404 2.320471,-6.4213 2.320471,-3.2107 z"
               id="path3944-9"
               inkscape:connector-curvature="0"
               sodipodi:nodetypes="ccc" />
            <path
               style="fill:none;stroke:#000000;stroke-width:1.07638013px;stroke-linecap:round;stroke-linejoin:round;stroke-opacity:1"
               d="m 20.309417,1017.7988 c 0,0 2.168284,1.6114 2.627065,2.7435 0.458781,1.1322 1.012921,4.2882 0,3.5564 -0.821492,-0.5934 0.0613,-3.2007 0.0613,-3.2007"
               id="path3845"
               inkscape:connector-curvature="0"
               sodipodi:nodetypes="czsc" />
            <path
               style="fill:none;stroke:#000000;stroke-width:1.07638013px;stroke-linecap:round;stroke-linejoin:miter;stroke-opacity:1"
               d="m 24.031093,1029.391 c -0.157624,3.2516 -5.746426,3.3884 -5.727002,4.7419 0.01942,1.3534 3.086834,-2.625 5.727002,-2.625"
               id="path3847"
               inkscape:connector-curvature="0"
               sodipodi:nodetypes="czc" />
            <path
               style="fill:none;stroke:#000000;stroke-width:1.07638013px;stroke-linecap:round;stroke-linejoin:miter;stroke-opacity:1"
               d="m 24.031093,1029.391 c 0.157624,3.2516 5.746426,3.3884 5.727002,4.7419 -0.01942,1.3534 -3.086835,-2.625 -5.727002,-2.625"
               id="path3847-1"
               inkscape:connector-curvature="0"
               sodipodi:nodetypes="czc" />
            <path
               style="fill:none;stroke:#000000;stroke-width:1.07638013px;stroke-linecap:round;stroke-linejoin:round;stroke-opacity:1"
               d="m 27.752768,1017.7988 c 0,0 -2.168284,1.6114 -2.627065,2.7435 -0.458781,1.1322 -1.012921,4.2882 0,3.5564 0.821492,-0.5934 -0.0613,-3.2007 -0.0613,-3.2007"
               id="path3845-2"
               inkscape:connector-curvature="0"
               sodipodi:nodetypes="czsc" />
          </g>
        </g>
      </g>
      <path
         id="path17"
         d="m 26.512859,1006.1328 c 1.403118,0.2268 2.551037,1.4801 2.551037,2.7848 l 0,36.4349 c 0,1.3047 -1.147919,2.1864 -2.551037,1.9597 l -17.4506702,-2.8221 c -1.4030231,-0.227 -2.5510373,-1.4801 -2.5510373,-2.7849 l 0,-36.4348 c 0,-1.3047 1.1480142,-2.1864 2.5510373,-1.9597 l 17.4506702,2.8221 z"
         style="fill:url(#linearGradient4230);stroke:#000000;stroke-width:0.5;stroke-miterlimit:4;stroke-dasharray:none;stroke-opacity:1;fill-opacity:1"
         inkscape:connector-curvature="0" />
    </g>
  </g>
</svg>
