<?xml version="1.0" encoding="UTF-8" standalone="no"?>
<!-- Created with Inkscape (http://www.inkscape.org/) -->

<svg
   xmlns:dc="http://purl.org/dc/elements/1.1/"
   xmlns:cc="http://creativecommons.org/ns#"
   xmlns:rdf="http://www.w3.org/1999/02/22-rdf-syntax-ns#"
   xmlns:svg="http://www.w3.org/2000/svg"
   xmlns="http://www.w3.org/2000/svg"
   xmlns:xlink="http://www.w3.org/1999/xlink"
   xmlns:inkscape="http://www.inkscape.org/namespaces/inkscape"
   width="55.682327"
   height="41.673306"
   id="svg6430"
   version="1.1"
   inkscape:version="0.91 r13725">
  <defs
     id="defs6432">
    <linearGradient
       id="linearGradient3048">
      <stop
         style="stop-color:#6363ff;stop-opacity:1;"
         offset="0"
         id="stop3050" />
      <stop
         style="stop-color:#000095;stop-opacity:1;"
         offset="1"
         id="stop3052" />
    </linearGradient>
    <radialGradient
       inkscape:collect="always"
       xlink:href="#linearGradient3048"
       id="radialGradient3167"
       gradientUnits="userSpaceOnUse"
       gradientTransform="matrix(0.13884843,0,0,0.09006142,-31.110393,970.02006)"
       cx="428.84229"
       cy="704.40137"
       fx="428.84229"
       fy="704.40137"
       r="251.44968" />
  </defs>
  <sodipodi:namedview
     id="base"
     pagecolor="#ffffff"
     bordercolor="#666666"
     borderopacity="1.0"
     inkscape:pageopacity="0.0"
     inkscape:pageshadow="2"
     inkscape:zoom="15.999999"
     inkscape:cx="21.493736"
     inkscape:cy="25.274528"
     inkscape:document-units="px"
     inkscape:current-layer="g3161"
     showgrid="true"
     inkscape:window-width="1920"
     inkscape:window-height="986"
     inkscape:window-x="0"
     inkscape:window-y="27"
     inkscape:window-maximized="1"
     inkscape:snap-global="false"
     units="px"
     fit-margin-top="0"
     fit-margin-left="0"
     fit-margin-right="0"
     fit-margin-bottom="0">
    <inkscape:grid
       empspacing="5"
       visible="true"
       enabled="true"
       snapvisiblegridlinesonly="true"
       type="xygrid"
       id="grid6438"
       originx="-0.1595242"
       originy="1.2742471" />
  </sodipodi:namedview>
  <metadata
     id="metadata6435">
    <rdf:RDF>
      <cc:Work
         rdf:about="">
        <dc:format>image/svg+xml</dc:format>
        <dc:type
           rdf:resource="http://purl.org/dc/dcmitype/StillImage" />
        <dc:title></dc:title>
      </cc:Work>
    </rdf:RDF>
  </metadata>
  <g
     inkscape:label="Layer 1"
     inkscape:groupmode="layer"
     id="layer1"
     transform="translate(-0.1595242,-1011.9632)"
     style="display:inline">
    <g
       id="g3161"
       transform="matrix(1.1514131,0,0,1.2014229,-0.75340101,-208.31851)">
      <g
         id="g4199">
        <path
           style="fill:url(#radialGradient3167);fill-opacity:1;stroke:#000000;stroke-width:0.48973253;stroke-linejoin:round;stroke-miterlimit:4;stroke-dasharray:none;stroke-opacity:1"
           d="m 23.640158,1047.3168 c -0.130879,-0.023 -0.623457,-0.089 -1.094617,-0.1479 -1.754701,-0.219 -4.131132,-0.9318 -5.663453,-1.6996 -2.971519,-1.4887 -5.524734,-3.7464 -7.3551624,-6.5046 -0.553666,-0.8342 -1.492314,-2.6593 -1.783997,-3.4687 -0.117913,-0.3271 -0.269142,-0.5948 -0.336057,-0.5948 -0.06691,0 -0.3149642,0.2708 -0.5512102,0.6019 -0.7580371,1.0624 -1.5622665,1.5118 -2.7282422,1.5247 -0.6012302,0.014 -0.7964906,-0.034 -1.2373936,-0.2566 -1.4359369,-0.7255 -2.1733756,-2.3255 -1.7174445,-3.7262 0.444853,-1.3665 3.6981781,-5.1176 6.0959125,-7.0284 9.7787644,-7.7935 23.1973594,-8.3479 33.5047964,-1.3845 1.541186,1.0413 2.526095,1.8473 3.93715,3.2222 1.809243,1.7628 3.756538,4.251 4.062446,5.1907 0.604684,1.8577 -0.93093,3.9672 -2.902035,3.9868 -1.136676,0.014 -1.955839,-0.4305 -2.731479,-1.4736 -0.268719,-0.3614 -0.541199,-0.657 -0.605508,-0.657 -0.06433,0 -0.213967,0.2677 -0.332555,0.5948 -0.812292,2.2413 -2.437689,4.6905 -4.349553,6.5542 -2.842438,2.7711 -6.10467,4.4095 -10.12001,5.0828 -0.869546,0.1456 -3.601446,0.2684 -4.091588,0.1838 z"
           id="path3042"
           inkscape:connector-curvature="0" />
        <path
           style="fill:#ffffff;stroke:#000000;stroke-width:0.40470952;stroke-linejoin:round;stroke-miterlimit:4;stroke-dasharray:none;stroke-opacity:1"
           d="m 27.686876,1044.2356 c 1.617853,-0.2927 2.559464,-0.5859 4.084193,-1.2716 3.381089,-1.5205 6.255767,-4.3616 7.858195,-7.7663 0.518062,-1.1009 0.933894,-2.2751 1.014892,-2.866 l 0.05509,-0.402 -0.759206,-0.6889 c -1.794543,-1.6283 -3.904548,-3.0118 -6.028272,-3.9528 -0.658773,-0.2918 -1.247724,-0.5307 -1.30878,-0.5307 -0.186376,0 -0.129764,0.1851 0.36159,1.1825 0.715777,1.4527 0.906344,2.2848 0.906344,3.9575 0,1.6343 -0.18816,2.4861 -0.851595,3.8549 -1.15727,2.3879 -3.255184,4.114 -5.864022,4.8248 -1.153631,0.3143 -3.207578,0.3146 -4.372107,0 -3.1773,-0.8569 -5.61983,-3.302 -6.490529,-6.4974 -0.181216,-0.665 -0.218727,-1.0393 -0.218727,-2.1829 0,-1.6726 0.190567,-2.5047 0.906344,-3.9575 0.468699,-0.9512 0.545674,-1.1824 0.393831,-1.1824 -0.151312,0 -1.289542,0.4928 -2.312345,1.001 -1.772127,0.8806 -3.238375,1.8868 -4.925142,3.38 l -0.8913323,0.789 0.05527,0.4033 c 0.08115,0.592 0.4966333,1.7656 1.0150533,2.8671 1.602424,3.4048 4.477107,6.2459 7.858195,7.7663 1.853145,0.8335 3.170225,1.1872 5.370862,1.4423 0.662662,0.077 3.396628,-0.036 4.142191,-0.1707 z"
           id="path3038"
           inkscape:connector-curvature="0" />
        <circle
           r="12.142858"
           cy="658.07648"
           cx="405.71429"
           style="fill:#ffffff;fill-opacity:0.60526315;stroke:none"
           id="path3828"
           transform="matrix(0.14566047,0,0,0.14566047,-32.124263,933.21319)" />
        <rect
           transform="matrix(0.75324402,-0.65774117,0.63281976,0.77429914,0,0)"
           ry="2.8591692"
           y="792.35284"
           x="-658.78217"
           height="5.7183385"
           width="48.650734"
           id="rect4203"
           style="opacity:1;fill:#d30000;fill-opacity:1;stroke:#ffffff;stroke-width:0.62848729;stroke-linejoin:round;stroke-miterlimit:4;stroke-dasharray:none;stroke-opacity:1" />
      </g>
    </g>
  </g>
</svg>
