<?xml version="1.0" encoding="UTF-8" standalone="no"?>
<!-- Created with Inkscape (http://www.inkscape.org/) -->

<svg
   xmlns:dc="http://purl.org/dc/elements/1.1/"
   xmlns:cc="http://creativecommons.org/ns#"
   xmlns:rdf="http://www.w3.org/1999/02/22-rdf-syntax-ns#"
   xmlns:svg="http://www.w3.org/2000/svg"
   xmlns="http://www.w3.org/2000/svg"
   xmlns:xlink="http://www.w3.org/1999/xlink"
   xmlns:sodipodi="http://sodipodi.sourceforge.net/DTD/sodipodi-0.dtd"
   xmlns:inkscape="http://www.inkscape.org/namespaces/inkscape"
   width="56"
   height="38"
   id="svg6430"
   version="1.1"
   inkscape:version="0.91 r13725"
   sodipodi:docname="hide.svg">
  <defs
     id="defs6432">
    <linearGradient
       id="linearGradient3844">
      <stop
         id="stop3846"
         offset="0"
         style="stop-color:#ffffff;stop-opacity:0.88461536;" />
      <stop
         id="stop3848"
         offset="1"
         style="stop-color:#ffffff;stop-opacity:0.43846154;" />
    </linearGradient>
    <linearGradient
       id="linearGradient5465">
      <stop
         style="stop-color:#ffffff;stop-opacity:0.95384616;"
         offset="0"
         id="stop5467" />
      <stop
         style="stop-color:#ffffff;stop-opacity:0.53076923;"
         offset="1"
         id="stop5469" />
    </linearGradient>
    <linearGradient
       id="linearGradient3794">
      <stop
         style="stop-color:#fdfdfd;stop-opacity:1;"
         offset="0"
         id="stop3796" />
      <stop
         style="stop-color:#606060;stop-opacity:1;"
         offset="1"
         id="stop3798" />
    </linearGradient>
    <linearGradient
       id="linearGradient3783">
      <stop
         style="stop-color:#000000;stop-opacity:1;"
         offset="0"
         id="stop3785" />
      <stop
         style="stop-color:#000000;stop-opacity:0;"
         offset="1"
         id="stop3787" />
    </linearGradient>
    <linearGradient
       id="linearGradient3770">
      <stop
         style="stop-color:#970000;stop-opacity:1"
         offset="0"
         id="stop3773" />
      <stop
         style="stop-color:#d80000;stop-opacity:1"
         offset="1"
         id="stop3775" />
    </linearGradient>
    <linearGradient
       id="linearGradient3761">
      <stop
         style="stop-color:#0000ff;stop-opacity:1;"
         offset="0"
         id="stop3763" />
      <stop
         id="stop3801"
         offset="0.80821919"
         style="stop-color:#0000ff;stop-opacity:1;" />
      <stop
         style="stop-color:#00002f;stop-opacity:1;"
         offset="1"
         id="stop3765" />
    </linearGradient>
    <linearGradient
       id="linearGradient3768">
      <stop
         style="stop-color:#ffffff;stop-opacity:1;"
         offset="0"
         id="stop3770" />
      <stop
         style="stop-color:#ffffff;stop-opacity:0.43076923;"
         offset="1"
         id="stop3772" />
    </linearGradient>
    <radialGradient
       inkscape:collect="always"
       xlink:href="#linearGradient3768"
       id="radialGradient3774"
       cx="23"
       cy="26.000002"
       fx="23"
       fy="26.000002"
       r="24"
       gradientUnits="userSpaceOnUse"
       gradientTransform="matrix(0.83333333,0,0,0.83333335,0.8333331,1.3333318)" />
    <radialGradient
       inkscape:collect="always"
       xlink:href="#linearGradient3761"
       id="radialGradient3799"
       cx="-42.5"
       cy="40.5"
       fx="-42.5"
       fy="40.5"
       r="23"
       gradientUnits="userSpaceOnUse"
       gradientTransform="matrix(1.3166668,0,0,1.3166668,79.958339,-29.32501)" />
    <radialGradient
       inkscape:collect="always"
       xlink:href="#linearGradient3761-3"
       id="radialGradient3799-1"
       cx="-42.5"
       cy="40.5"
       fx="-42.5"
       fy="40.5"
       r="23"
       gradientUnits="userSpaceOnUse"
       gradientTransform="matrix(1.3166668,0,0,1.3166668,79.958339,-29.32501)" />
    <linearGradient
       id="linearGradient3761-3">
      <stop
         style="stop-color:#ff0000;stop-opacity:1;"
         offset="0"
         id="stop3763-7" />
      <stop
         id="stop3801-7"
         offset="0.80821919"
         style="stop-color:#ff0000;stop-opacity:1;" />
      <stop
         style="stop-color:#2f0000;stop-opacity:1;"
         offset="1"
         id="stop3765-7" />
    </linearGradient>
    <clipPath
       clipPathUnits="userSpaceOnUse"
       id="clipPath3932">
      <path
         sodipodi:type="arc"
         style="fill:#000000;fill-opacity:1;stroke:none"
         id="path3934"
         sodipodi:cx="23.925516"
         sodipodi:cy="23.588192"
         sodipodi:rx="27.037779"
         sodipodi:ry="26.940521"
         d="m 50.963295,23.588192 a 27.037779,26.940521 0 1 1 -54.0755577,0 27.037779,26.940521 0 1 1 54.0755577,0 z"
         transform="translate(0,1004.3622)" />
    </clipPath>
    <radialGradient
       inkscape:collect="always"
       xlink:href="#linearGradient3761-33"
       id="radialGradient3799-5"
       cx="-42.5"
       cy="40.5"
       fx="-42.5"
       fy="40.5"
       r="23"
       gradientUnits="userSpaceOnUse"
       gradientTransform="matrix(1.3166668,0,0,1.3166668,79.958339,-29.32501)" />
    <linearGradient
       id="linearGradient3761-33">
      <stop
         style="stop-color:#ff0000;stop-opacity:1;"
         offset="0"
         id="stop3763-5" />
      <stop
         id="stop3801-2"
         offset="0.80821919"
         style="stop-color:#ff0000;stop-opacity:1;" />
      <stop
         style="stop-color:#2f0000;stop-opacity:1;"
         offset="1"
         id="stop3765-9" />
    </linearGradient>
    <clipPath
       clipPathUnits="userSpaceOnUse"
       id="clipPath4027">
      <path
         sodipodi:type="arc"
         style="opacity:0.56370658;fill:#ffffff;fill-opacity:1;stroke:none"
         id="path4029"
         sodipodi:cx="30.830849"
         sodipodi:cy="12.695274"
         sodipodi:rx="18.576315"
         sodipodi:ry="12.546308"
         d="m 49.407164,12.695274 a 18.576315,12.546308 0 1 1 -37.15263,0 18.576315,12.546308 0 1 1 37.15263,0 z"
         transform="matrix(1.3267989,0,0,1.4263566,-16.648335,997.87974)" />
    </clipPath>
    <radialGradient
       inkscape:collect="always"
       xlink:href="#linearGradient5465"
       id="radialGradient5471"
       cx="10.421018"
       cy="1012.4713"
       fx="10.421018"
       fy="1012.4713"
       r="24.647034"
       gradientTransform="matrix(0.55015141,0,0,0.38151973,6.7122842,626.57835)"
       gradientUnits="userSpaceOnUse" />
    <radialGradient
       inkscape:collect="always"
       xlink:href="#linearGradient3794"
       id="radialGradient5473"
       cx="69.236534"
       cy="2.2229593"
       fx="69.236534"
       fy="2.2229593"
       r="25.271166"
       gradientUnits="userSpaceOnUse"
       gradientTransform="matrix(1.1199609,-0.01456771,0.01367393,1.0512475,-5.877308,3.0646378)" />
    <radialGradient
       inkscape:collect="always"
       xlink:href="#linearGradient3761"
       id="radialGradient5475"
       gradientUnits="userSpaceOnUse"
       gradientTransform="matrix(0.98402248,0,0,0.98402248,65.820955,988.50929)"
       cx="-42.5"
       cy="40.5"
       fx="-42.5"
       fy="40.5"
       r="23" />
    <radialGradient
       inkscape:collect="always"
       xlink:href="#linearGradient3761"
       id="radialGradient5521"
       gradientUnits="userSpaceOnUse"
       gradientTransform="matrix(0.98402248,0,0,0.98402248,65.820955,988.50929)"
       cx="-42.5"
       cy="40.5"
       fx="-42.5"
       fy="40.5"
       r="23" />
    <radialGradient
       inkscape:collect="always"
       xlink:href="#linearGradient5465"
       id="radialGradient5523"
       gradientUnits="userSpaceOnUse"
       gradientTransform="matrix(0.55015141,0,0,0.38151973,6.7122842,626.57835)"
       cx="10.421018"
       cy="1012.4713"
       fx="10.421018"
       fy="1012.4713"
       r="24.647034" />
    <radialGradient
       inkscape:collect="always"
       xlink:href="#linearGradient3794"
       id="radialGradient5525"
       gradientUnits="userSpaceOnUse"
       gradientTransform="matrix(1.1199609,-0.01456771,0.01367393,1.0512475,-5.877308,3.0646378)"
       cx="69.236534"
       cy="2.2229593"
       fx="69.236534"
       fy="2.2229593"
       r="25.271166" />
    <radialGradient
       inkscape:collect="always"
       xlink:href="#linearGradient3761"
       id="radialGradient5530"
       gradientUnits="userSpaceOnUse"
       gradientTransform="matrix(0.98402248,0,0,0.98402248,65.820955,988.50929)"
       cx="-42.5"
       cy="40.5"
       fx="-42.5"
       fy="40.5"
       r="23" />
    <radialGradient
       inkscape:collect="always"
       xlink:href="#linearGradient3761-6"
       id="radialGradient5530-9"
       gradientUnits="userSpaceOnUse"
       gradientTransform="matrix(0.98402248,0,0,0.98402248,65.820955,988.50929)"
       cx="-42.5"
       cy="40.5"
       fx="-42.5"
       fy="40.5"
       r="23" />
    <linearGradient
       id="linearGradient3761-6">
      <stop
         style="stop-color:#ff0000;stop-opacity:1;"
         offset="0"
         id="stop3763-73" />
      <stop
         id="stop3801-28"
         offset="0.80821919"
         style="stop-color:#ff0000;stop-opacity:1;" />
      <stop
         style="stop-color:#2f0000;stop-opacity:1;"
         offset="1"
         id="stop3765-75" />
    </linearGradient>
    <radialGradient
       r="23"
       fy="25.009037"
       fx="-50.569687"
       cy="25.009037"
       cx="-50.569687"
       gradientTransform="matrix(0.26086948,-3.7526812e-7,5.0506052e-7,0.3513531,29.192078,1005.5751)"
       gradientUnits="userSpaceOnUse"
       id="radialGradient3051"
       xlink:href="#linearGradient3844"
       inkscape:collect="always" />
    <clipPath
       clipPathUnits="userSpaceOnUse"
       id="clipPath3072">
      <path
         sodipodi:type="arc"
         style="fill:#ffffff;fill-opacity:1;stroke:none"
         id="path3074"
         sodipodi:cx="27.621328"
         sodipodi:cy="16.974636"
         sodipodi:rx="14.783246"
         sodipodi:ry="10.601144"
         d="m 42.404574,16.974636 a 14.783246,10.601144 0 1 1 -29.566492,0 14.783246,10.601144 0 1 1 29.566492,0 z"
         transform="matrix(1.1052632,0,0,0.96330275,-6.2142869,1000.1222)" />
    </clipPath>
    <radialGradient
       inkscape:collect="always"
       xlink:href="#linearGradient3768"
       id="radialGradient3830"
       cx="20.607023"
       cy="12.58857"
       fx="20.607023"
       fy="12.58857"
       r="18.103733"
       gradientTransform="matrix(0.44448691,0,0,0.43509627,11.447471,8.5069172)"
       gradientUnits="userSpaceOnUse" />
    <radialGradient
       inkscape:collect="always"
       xlink:href="#linearGradient3048"
       id="radialGradient3824"
       cx="428.84229"
       cy="704.40137"
       fx="428.84229"
       fy="704.40137"
       r="251.44968"
       gradientTransform="matrix(1.4587359,0,0,0.94618163,-196.72539,38.65292)"
       gradientUnits="userSpaceOnUse" />
    <linearGradient
       id="linearGradient3048">
      <stop
         style="stop-color:#6363ff;stop-opacity:1;"
         offset="0"
         id="stop3050" />
      <stop
         style="stop-color:#000095;stop-opacity:1;"
         offset="1"
         id="stop3052" />
    </linearGradient>
    <radialGradient
       r="251.44968"
       fy="704.40137"
       fx="428.84229"
       cy="704.40137"
       cx="428.84229"
       gradientTransform="matrix(0.13884843,0,0,0.09006142,-31.110393,969.3958)"
       gradientUnits="userSpaceOnUse"
       id="radialGradient4184"
       xlink:href="#linearGradient3048"
       inkscape:collect="always" />
    <radialGradient
       inkscape:collect="always"
       xlink:href="#linearGradient3048"
       id="radialGradient3167"
       gradientUnits="userSpaceOnUse"
       gradientTransform="matrix(0.13884843,0,0,0.09006142,-31.110393,970.02006)"
       cx="428.84229"
       cy="704.40137"
       fx="428.84229"
       fy="704.40137"
       r="251.44968" />
    <linearGradient
       inkscape:collect="always"
       xlink:href="#linearGradient3770"
       id="linearGradient4215"
       x1="-644.87946"
       y1="801.97516"
       x2="-622.04572"
       y2="788.25848"
       gradientUnits="userSpaceOnUse"
       gradientTransform="matrix(1.0163639,0,0,1.0165425,10.824438,-13.51334)" />
  </defs>
  <sodipodi:namedview
     id="base"
     pagecolor="#ffffff"
     bordercolor="#666666"
     borderopacity="1.0"
     inkscape:pageopacity="0.0"
     inkscape:pageshadow="2"
     inkscape:zoom="15.999999"
     inkscape:cx="24.45219"
     inkscape:cy="24.250281"
     inkscape:document-units="px"
     inkscape:current-layer="g3161"
     showgrid="true"
     inkscape:window-width="1920"
     inkscape:window-height="1016"
     inkscape:window-x="0"
     inkscape:window-y="27"
     inkscape:window-maximized="1"
     inkscape:snap-global="false"
     units="px">
    <inkscape:grid
       empspacing="5"
       visible="true"
       enabled="true"
       snapvisiblegridlinesonly="true"
       type="xygrid"
       id="grid6438" />
  </sodipodi:namedview>
  <metadata
     id="metadata6435">
    <rdf:RDF>
      <cc:Work
         rdf:about="">
        <dc:format>image/svg+xml</dc:format>
        <dc:type
           rdf:resource="http://purl.org/dc/dcmitype/StillImage" />
        <dc:title />
      </cc:Work>
    </rdf:RDF>
  </metadata>
  <g
     inkscape:label="Layer 1"
     inkscape:groupmode="layer"
     id="layer1"
     transform="translate(0,-1014.3622)"
     style="display:inline">
    <g
       id="g3161"
       transform="matrix(1.1514131,0,0,1.2014229,-0.75340101,-208.31851)">
      <path
         inkscape:connector-curvature="0"
         id="path3042"
         d="m 23.640158,1047.3168 c -0.130879,-0.023 -0.623457,-0.089 -1.094617,-0.1479 -1.754701,-0.219 -4.131132,-0.9318 -5.663453,-1.6996 -2.971519,-1.4887 -5.524734,-3.7464 -7.3551624,-6.5046 -0.553666,-0.8342 -1.492314,-2.6593 -1.783997,-3.4687 -0.117913,-0.3271 -0.269142,-0.5948 -0.336057,-0.5948 -0.06691,0 -0.3149642,0.2708 -0.5512102,0.6019 -0.7580371,1.0624 -1.5622665,1.5118 -2.7282422,1.5247 -0.6012302,0.014 -0.7964906,-0.034 -1.2373936,-0.2566 -1.4359369,-0.7255 -2.1733756,-2.3255 -1.7174445,-3.7262 0.444853,-1.3665 3.6981781,-5.1176 6.0959125,-7.0284 9.7787644,-7.7935 23.1973594,-8.3479 33.5047964,-1.3845 1.541186,1.0413 2.526095,1.8473 3.93715,3.2222 1.809243,1.7628 3.756538,4.251 4.062446,5.1907 0.604684,1.8577 -0.93093,3.9672 -2.902035,3.9868 -1.136676,0.014 -1.955839,-0.4305 -2.731479,-1.4736 -0.268719,-0.3614 -0.541199,-0.657 -0.605508,-0.657 -0.06433,0 -0.213967,0.2677 -0.332555,0.5948 -0.812292,2.2413 -2.437689,4.6905 -4.349553,6.5542 -2.842438,2.7711 -6.10467,4.4095 -10.12001,5.0828 -0.869546,0.1456 -3.601446,0.2684 -4.091588,0.1838 z"
         style="fill:url(#radialGradient3167);fill-opacity:1" />
      <path
         inkscape:connector-curvature="0"
         id="path3038"
         d="m 27.686876,1044.2356 c 1.617853,-0.2927 2.559464,-0.5859 4.084193,-1.2716 3.381089,-1.5205 6.255767,-4.3616 7.858195,-7.7663 0.518062,-1.1009 0.933894,-2.2751 1.014892,-2.866 l 0.05509,-0.402 -0.759206,-0.6889 c -1.794543,-1.6283 -3.904548,-3.0118 -6.028272,-3.9528 -0.658773,-0.2918 -1.247724,-0.5307 -1.30878,-0.5307 -0.186376,0 -0.129764,0.1851 0.36159,1.1825 0.715777,1.4527 0.906344,2.2848 0.906344,3.9575 0,1.6343 -0.18816,2.4861 -0.851595,3.8549 -1.15727,2.3879 -3.255184,4.114 -5.864022,4.8248 -1.153631,0.3143 -3.207578,0.3146 -4.372107,0 -3.1773,-0.8569 -5.61983,-3.302 -6.490529,-6.4974 -0.181216,-0.665 -0.218727,-1.0393 -0.218727,-2.1829 0,-1.6726 0.190567,-2.5047 0.906344,-3.9575 0.468699,-0.9512 0.545674,-1.1824 0.393831,-1.1824 -0.151312,0 -1.289542,0.4928 -2.312345,1.001 -1.772127,0.8806 -3.238375,1.8868 -4.925142,3.38 l -0.8913323,0.789 0.05527,0.4033 c 0.08115,0.592 0.4966333,1.7656 1.0150533,2.8671 1.602424,3.4048 4.477107,6.2459 7.858195,7.7663 1.853145,0.8335 3.170225,1.1872 5.370862,1.4423 0.662662,0.077 3.396628,-0.036 4.142191,-0.1707 z"
         style="fill:#ffffff" />
      <circle
         transform="matrix(0.14566047,0,0,0.14566047,-32.124263,933.21319)"
         id="path3828"
         style="fill:#ffffff;fill-opacity:0.60526315;stroke:none"
         sodipodi:type="arc"
         sodipodi:ry="12.142858"
         sodipodi:rx="12.142858"
         sodipodi:cy="658.07648"
         sodipodi:cx="405.71429"
         d="m 417.85715,658.07648 a 12.142858,12.142858 0 0 1 -12.14286,12.14285 12.142858,12.142858 0 0 1 -12.14285,-12.14285 12.142858,12.142858 0 0 1 12.14285,-12.14286 12.142858,12.142858 0 0 1 12.14286,12.14286 z" />
      <rect
         style="opacity:1;fill:url(#linearGradient4215);fill-opacity:1;stroke:#ffffff;stroke-width:0.41407186;stroke-miterlimit:4;stroke-dasharray:none;stroke-opacity:1"
         id="rect4203"
         width="43.929268"
         height="5.1643834"
         x="-656.59344"
         y="792.36487"
         ry="2.5821917"
         transform="matrix(0.75286604,-0.65817378,0.63237982,0.77465848,0,0)" />
    </g>
  </g>
</svg>
