<svg height="41.673306" version="1.1" width="55.682327" xmlns="http://www.w3.org/2000/svg" xmlns:xlink="http://www.w3.org/1999/xlink">
  <radialGradient id="a" cx="428.84229" cy="704.40137" gradientTransform="matrix(.13884843 0 0 .09006142 -31.110393 970.02006)" gradientUnits="userSpaceOnUse" r="251.44968">
    <stop offset="0" stop-color="#6363ff"/>
    <stop offset="1" stop-color="#000095"/>
  </radialGradient>
  <g transform="matrix(1.1514131 0 0 1.2014229 -.91292521 -1220.28171)">
    <path d="m 23.640158 1047.3168 c -.130879 -.023 -.623457 -.089 -1.094617 -.1479 c -1.754701 -.219 -4.131132 -.9318 -5.663453 -1.6996 c -2.971519 -1.4887 -5.524734 -3.7464 -7.3551624 -6.5046 c -.553666 -.8342 -1.492314 -2.6593 -1.783997 -3.4687 c -.117913 -.3271 -.269142 -.5948 -.336057 -.5948 c -.06691 0 -.3149642 .2708 -.5512102 .6019 c -.7580371 1.0624 -1.5622665 1.5118 -2.7282422 1.5247 c -.6012302 .014 -.7964906 -.034 -1.2373936 -.2566 c -1.4359369 -.7255 -2.1733756 -2.3255 -1.7174445 -3.7262 c .444853 -1.3665 3.6981781 -5.1176 6.0959125 -7.0284 c 9.7787644 -7.7935 23.1973594 -8.3479 33.5047964 -1.3845 c 1.541186 1.0413 2.526095 1.8473 3.93715 3.2222 c 1.809243 1.7628 3.756538 4.251 4.062446 5.1907 c .604684 1.8577 -.93093 3.9672 -2.902035 3.9868 c -1.136676 .014 -1.955839 -.4305 -2.731479 -1.4736 c -.268719 -.3614 -.541199 -.657 -.605508 -.657 c -.06433 0 -.213967 .2677 -.332555 .5948 c -.812292 2.2413 -2.437689 4.6905 -4.349553 6.5542 c -2.842438 2.7711 -6.10467 4.4095 -10.12001 5.0828 c -.869546 .1456 -3.601446 .2684 -4.091588 .1838 z" fill="url(#a)" stroke="#000" stroke-linejoin="round" stroke-width=".48973253"/>
    <path d="m 27.686876 1044.2356 c 1.617853 -.2927 2.559464 -.5859 4.084193 -1.2716 c 3.381089 -1.5205 6.255767 -4.3616 7.858195 -7.7663 c .518062 -1.1009 .933894 -2.2751 1.014892 -2.866 l .05509 -.402 l -.759206 -.6889 c -1.794543 -1.6283 -3.904548 -3.0118 -6.028272 -3.9528 c -.658773 -.2918 -1.247724 -.5307 -1.30878 -.5307 c -.186376 0 -.129764 .1851 .36159 1.1825 c .715777 1.4527 .906344 2.2848 .906344 3.9575 c 0 1.6343 -.18816 2.4861 -.851595 3.8549 c -1.15727 2.3879 -3.255184 4.114 -5.864022 4.8248 c -1.153631 .3143 -3.207578 .3146 -4.372107 0 c -3.1773 -.8569 -5.61983 -3.302 -6.490529 -6.4974 c -.181216 -.665 -.218727 -1.0393 -.218727 -2.1829 c 0 -1.6726 .190567 -2.5047 .906344 -3.9575 c .468699 -.9512 .545674 -1.1824 .393831 -1.1824 c -.151312 0 -1.289542 .4928 -2.312345 1.001 c -1.772127 .8806 -3.238375 1.8868 -4.925142 3.38 l -.8913323 .789 l .05527 .4033 c .08115 .592 .4966333 1.7656 1.0150533 2.8671 c 1.602424 3.4048 4.477107 6.2459 7.858195 7.7663 c 1.853145 .8335 3.170225 1.1872 5.370862 1.4423 c .662662 .077 3.396628 -.036 4.142191 -.1707 z" fill="#fff" stroke="#000" stroke-linejoin="round" stroke-width=".40470952"/>
    <circle cx="26.972271167116" cy="1029.068919372746" fill="#fff" fill-opacity=".60526315" r="1.768734403423"/>
    <rect fill="#d30000" height="5.7183385" ry="2.8591692" stroke="#fff" stroke-linejoin="round" stroke-width=".62848729" transform="matrix(.75324402 -.65774117 .63281976 .77429914 0 0)" width="48.650734" x="-658.78217" y="792.35284"/>
  </g>
</svg>
