<svg height="45.472179" version="1.1" width="35.651131" xmlns="http://www.w3.org/2000/svg" xmlns:xlink="http://www.w3.org/1999/xlink">
  <linearGradient id="a" gradientTransform="matrix(1.0946105 0 0 1.0584535 -2.2395592 -61.199498)" gradientUnits="userSpaceOnUse" x1="14.971689" x2="31.048389" y1="1009.0383" y2="1052.0463">
    <stop offset="0" stop-color="#93a8b1"/>
    <stop offset="1" stop-color="#5e7782"/>
  </linearGradient>
  <radialGradient id="b" cx="23.983387" cy="1030.8881" gradientTransform="matrix(.43082834 .00354039 -.00517217 .58850477 19.030294 422.62355)" gradientUnits="userSpaceOnUse" r="13">
    <stop offset="0" stop-color="#333d5f"/>
    <stop offset="1" stop-color="#98aae4"/>
  </radialGradient>
  <g transform="translate(-6.1745129 -1005.6261)">
    <path d="m 41.019448 1031.8128 c 1.09461 -7.4092 -1.409859 -13.9208 -3.178749 -17.6889 c -2.510081 -5.347 -7.959968 -7.9596 -13.599441 -7.9596 c -5.639473 0 -11.270888 2.6817 -13.914689 7.858 c -2.6437999 5.1762 -4.3784417 10.0764 -3.2838312 17.4856 c 1.0946105 7.4092 4.9476392 19.0522 16.9883552 19.0522 c 12.040715 0 15.893744 -11.3382 16.988355 -18.7473 z" stroke="url(#a)" stroke-width="1.07638013"/>
    <path d="m 9.8011563 1034.6833 c -1.7251062 -6.6132 -1.0946105 -11.643 1.0946107 -16.9353 c 2.189221 -5.2922 5.473052 -9.5261 13.135326 -9.5261 c 7.662273 0 10.946105 4.2339 13.135326 9.5261 c 2.189221 5.2923 2.819716 10.3221 1.09461 16.9353 c -1.725106 6.6132 -5.473052 13.7599 -14.229936 13.7599 c -8.756884 0 -12.504831 -7.1467 -14.2299367 -13.7599 z" fill="#364266"/>
    <path d="m 36.071808 1019.8649 c -2.302354 .7354 -.402094 2.8066 -1.09461 4.2338 c 3.283831 -1.0584 1.09461 3.1754 2.189221 2.117 m -25.176042 -6.3508 c 2.302355 .7354 .402095 2.8066 1.094611 4.2338 c -3.2838317 -1.0584 -1.094611 3.1754 -2.189221 2.117 m 14.92173 11.0585 c 3.3994 .1482 7.487138 .3909 .40977 3.3531 c 3.293053 2.5256 -.120079 3.0615 -.730298 5.3064 c 1.564916 -2.1772 2.161962 -6.5059 3.683172 -.6742 c -1.31662 -4.785 2.741037 -4.3264 3.152478 -2.3371 c -3.54795 -6.0182 1.248673 -4.3653 3.10367 -5.2591 c -6.259011 -2.0849 -1.96738 -4.7341 1.394666 -4.5182 c -2.107418 .1744 -3.387224 -.4449 -5.190387 -1.9973 c 1.102967 -.9076 .120175 -6.3086 -1.609206 -12.684 c 1.411788 .3593 2.043189 -1.2367 4.792461 -1.7397 c -5.930266 .4482 -1.583509 -6.0194 -4.225067 -3.2099 c -2.319936 .6409 -3.052484 -2.6464 -3.730433 -2.193 c -.791969 .5297 1.292738 5.3684 -2.83723 5.3684 c -4.129969 0 -1.87562 -5.3197 -2.837231 -5.3685 c -.639346 -.033 -3.332746 3.2185 -3.730432 2.1931 c -2.125089 -3.1063 2.495584 2.3023 -4.225068 3.2098 c 2.749272 .5028 3.380673 2.0989 4.792461 1.7396 c -1.72938 6.3755 -2.712172 11.7765 -1.609205 12.684 c -1.803163 1.5525 -3.08297 2.1718 -5.190387 1.9974 c 3.296985 -.1527 7.564897 3.0035 1.394665 4.5181 c 2.283949 .2422 5.3738 -.372 3.103671 5.2592 c 1.11306 -3.0495 4.092222 -1.0929 2.828473 2.3455 c .235285 -4.3153 1.859324 -2.7495 4.007177 .6658 c -1.498068 -2.5849 -3.381229 -5.2152 -.730298 -5.3064 c -7.791342 -.4309 -2.232927 -4.961 .409769 -3.3531 c -.893622 -1.665 .547607 -1.5325 1.786405 -1.5324 c 1.238798 0 2.680027 -.1325 1.786404 1.5325 z" fill="url(#b)" stroke="#9bade5" stroke-linecap="round" stroke-linejoin="round" stroke-width="2.15276027"/>
    <g fill="#57638b">
      <path d="m 18.55804 1020.9234 c -1.09461 -1.0585 -2.243783 4.3905 -1.09461 7.4092 c .757212 -1.7642 1.612067 -3.5282 2.189221 -5.2923 c 0 0 0 -1.0585 -1.094611 -2.1169 z"/>
      <path d="m 19.652651 1019.8472 c 1.160235 2.1287 .706587 1.7126 2.320471 3.1931 c 2.320471 -2.1287 -2.320471 -6.386 -2.320471 -3.1931 z"/>
      <path d="m 29.504145 1020.9234 c 1.094611 -1.0585 2.243783 4.3905 1.094611 7.4092 c -.757212 -1.7642 -1.612067 -3.5282 -2.189221 -5.2923 c 0 0 0 -1.0585 1.09461 -2.1169 z"/>
      <path d="m 28.409535 1019.8296 c -1.160236 2.1404 -.706587 1.722 -2.320471 3.2107 c -2.320471 -2.1404 2.320471 -6.4213 2.320471 -3.2107 z"/>
    </g>
    <g fill="none" stroke="#000" stroke-linecap="round" stroke-width="1.07638013">
      <path d="m 20.309417 1017.7988 c 0 0 2.168284 1.6114 2.627065 2.7435 c .458781 1.1322 1.012921 4.2882 0 3.5564 c -.821492 -.5934 .0613 -3.2007 .0613 -3.2007" stroke-linejoin="round"/>
      <path d="m 24.031093 1029.391 c -.157624 3.2516 -5.746426 3.3884 -5.727002 4.7419 c .01942 1.3534 3.086834 -2.625 5.727002 -2.625"/>
      <path d="m 24.031093 1029.391 c .157624 3.2516 5.746426 3.3884 5.727002 4.7419 c -.01942 1.3534 -3.086835 -2.625 -5.727002 -2.625"/>
      <path d="m 27.752768 1017.7988 c 0 0 -2.168284 1.6114 -2.627065 2.7435 c -.458781 1.1322 -1.012921 4.2882 0 3.5564 c .821492 -.5934 -.0613 -3.2007 -.0613 -3.2007" stroke-linejoin="round"/>
    </g>
  </g>
</svg>
