<svg height="35" version="1.1" width="35" xmlns="http://www.w3.org/2000/svg" xmlns:xlink="http://www.w3.org/1999/xlink">
  <linearGradient id="a" gradientTransform="matrix(.99489092 0 0 1.0053664 -15.082326 1003.6307)" gradientUnits="userSpaceOnUse" x1="48.053577" x2="49.928986" y1="47.630402" y2="45.357975">
    <stop offset="0" stop-color="#414141"/>
    <stop offset="1" stop-color="#d2d2d2"/>
  </linearGradient>
  <linearGradient id="b" gradientTransform="matrix(.74256735 0 0 .75038604 -2.3010315 263.3236)" gradientUnits="userSpaceOnUse" x1="34.53566" x2="47.413795" y1="1041.8379" y2="1041.3622">
    <stop offset="0"/>
    <stop offset="1" stop-opacity="0"/>
  </linearGradient>
  <linearGradient id="c" gradientTransform="matrix(.74256735 0 0 .75038604 -2.3010315 263.3236)" gradientUnits="userSpaceOnUse" x1="39.387989" x2="42.085747" y1="1044.597" y2="1040.9817">
    <stop offset="0"/>
    <stop offset="1" stop-color="#9d3f00"/>
  </linearGradient>
  <radialGradient id="d" cx="181.66209" cy="24.727869" gradientTransform="matrix(.99992775 0 0 1.0163767 -165.48108 1008.6238)" gradientUnits="userSpaceOnUse" r="13.693534">
    <stop offset="0" stop-color="#dbfbfb"/>
    <stop offset="1" stop-color="#95cccb"/>
  </radialGradient>
  <linearGradient id="e" gradientTransform="matrix(.99992775 0 0 1.0991745 -165.48108 1006.8009)" gradientUnits="userSpaceOnUse" x1="186.1618" x2="172.93135" y1="30.330091" y2="15.001222">
    <stop offset="0" stop-color="#818181"/>
    <stop offset="1" stop-color="#2f2f2f"/>
  </linearGradient>
  <g transform="translate(0 -1017.3622)">
    <ellipse cx="32.174992" cy="1049.3749" fill="url(#a)" rx="2.4872272" ry="2.5134161"/>
    <path d="m 23.688826 1041.7457 l 6.683106 6.0031" fill="url(#b)" stroke="url(#c)" stroke-linecap="square" stroke-width="5.09656477"/>
    <ellipse cx="13.593307" cy="1031.0005" fill="url(#d)" rx="12.278826" ry="12.363753" stroke="url(#e)" stroke-linecap="round" stroke-linejoin="round" stroke-width="1.49293292"/>
    <ellipse cx="-640.00275" cy="781.88654" fill="#fff" opacity=".41176471" rx="4.5515914" ry="3.121696" transform="matrix(.75587702 -.65471363 .63033112 .7763264 0 0)"/>
    <path d="m 12.524488 1023.0377 c 1.086733 1.3385 .427364 3.7576 -1.472741 5.4034 c -1.9001051 1.6459 -4.321413 1.895 -5.4081455 .5566 c -1.0867323 -1.3385 -.4273638 -3.7576 1.4727413 -5.4034 c 1.9001051 -1.6459 4.3214132 -1.895 5.4081452 -.5566 z" fill="#d2f8fb" opacity=".41176471"/>
  </g>
</svg>
