<svg height="35.970955" version="1.1" width="29.601774" xmlns="http://www.w3.org/2000/svg" xmlns:xlink="http://www.w3.org/1999/xlink">
  <linearGradient id="a">
    <stop offset="0" stop-color="#7a7a7a"/>
    <stop offset="1" stop-color="#cacaca"/>
  </linearGradient>
  <linearGradient id="b" gradientUnits="userSpaceOnUse" x1="11.033388" x2="24.152355" xlink:href="#a" y1="1044.9954" y2="1044.9954"/>
  <linearGradient id="c" gradientTransform="matrix(.65641026 0 0 1 6.0783687 3.4311146)" gradientUnits="userSpaceOnUse" x1="12.365784" x2="22.81996" xlink:href="#a" y1="1046.4082" y2="1043.8517"/>
  <linearGradient id="d" gradientUnits="userSpaceOnUse" x1="10.787475" x2="25.498896" y1="1037.3505" y2="1023.7605">
    <stop offset="0" stop-color="#ffe17c"/>
    <stop offset="1" stop-color="#fffec0"/>
  </linearGradient>
  <radialGradient id="e" cx="18.433832" cy="1032.1455" gradientTransform="matrix(1 0 0 .99318183 .3853578 5.7773872)" gradientUnits="userSpaceOnUse" r="14.800887">
    <stop offset="0" stop-color="#fffa7c" stop-opacity=".60550457"/>
    <stop offset=".82727271" stop-color="#fffbaf" stop-opacity=".48623854"/>
    <stop offset="1" stop-color="#fffdde" stop-opacity="0"/>
  </radialGradient>
  <radialGradient id="f" cx="18.433832" cy="1032.1455" gradientTransform="matrix(1 0 0 .99318183 .3853578 5.7773872)" gradientUnits="userSpaceOnUse" r="14.800887">
    <stop offset="0" stop-color="#fffa7c" stop-opacity=".60550457"/>
    <stop offset=".75404626" stop-color="#fffbaf" stop-opacity=".48623854"/>
    <stop offset="1" stop-color="#fffdde" stop-opacity="0"/>
  </radialGradient>
  <g transform="translate(-4.018302 -1016.1855)">
    <ellipse cx="18.819189" cy="1030.8855" fill="url(#e)" rx="14.800887" ry="14.699972"/>
    <g transform="matrix(.93687732 .34965823 -.34965823 .93687732 362.54646 59.574737)">
      <path d="m 11.188716 1043.2798 l 12.325732 -.1434 c 0 0 .275435 -2.5834 1.308318 -5.0232 c 1.032882 -2.4398 2.341201 -3.5161 2.754353 -5.0229 c .413153 -1.5071 .413153 -5.8843 -.344294 -7.4629 c -.757448 -1.5788 -4.820119 -5.1667 -6.541591 -5.669 c -1.721469 -.5023 -5.78414 -.574 -7.230176 .2152 c -1.446036 .7895 -4.4758247 3.6598 -5.1644131 4.9514 c -.6885884 1.2916 -1.1706002 4.5208 -.8263061 6.4582 c .3442942 1.9375 .7574473 3.0856 1.4460357 4.3057 c .6885883 1.2197 1.5148945 2.5831 1.7214705 4.0182 c .206576 1.4352 .550871 3.3727 .550871 3.3727 z" fill="url(#d)" fill-rule="evenodd"/>
      <rect fill="url(#c)" height="5.583971" ry="2.0520079" width="8.6114254" x="13.320798" y="1045.6345"/>
      <rect fill="url(#b)" height="5.583971" ry="1.5137337" width="13.118968" x="11.033388" y="1042.2034"/>
      <path d="m 17.592988 1020.8536 c 4.932335 0 8.931576 4.0638 8.931576 9.0757 c 0 4.9349 -2.926686 5.5102 -3.476934 10.8909 c 0 .5024 -.398732 .9075 -.893157 .9075 l -9.122969 0 c -.494425 0 -.893158 -.4051 -.893158 -.9075 l -.0019 0 c -.548273 -5.3807 -3.4749605 -5.956 -3.4749605 -10.8909 c 0 -5.0119 3.9993075 -9.0757 8.9315775 -9.0757 m 4.465789 21.7818 c .494425 0 .893157 .4051 .893157 .9075 c 0 .5024 -.398732 .9076 -.893157 .9076 l -8.931578 0 c -.494424 0 -.893158 -.4052 -.893158 -.9076 c 0 -.5024 .398734 -.9075 .893158 -.9075 l 8.931578 0 m 0 2.7227 c .494425 0 .893157 .4052 .893157 .9076 c 0 .5024 -.398732 .9075 -.893157 .9075 l -8.931578 0 c -.494424 0 -.893158 -.4051 -.893158 -.9075 c 0 -.5024 .398734 -.9076 .893158 -.9076 l 8.931578 0 m -.893157 2.7227 c 0 1.0028 -.799441 1.8152 -1.786316 1.8152 l -3.572631 0 c -.986875 0 -1.786316 -.8124 -1.786316 -1.8152 l 7.145263 0 m -3.572632 -29.3017 c -6.050761 0 -10.9730801 5.0018 -10.9730801 11.1502 c 0 3.0874 .9928722 4.86 1.8660629 6.426 c .7416395 1.3249 1.3836291 2.4735 1.6128512 4.6087 c .02196 .4741 .155537 .9198 .372829 1.3107 c -.179397 .385 -.279112 .8145 -.279112 1.2682 c 0 .4903 .115663 .9522 .323004 1.3613 c -.207341 .4094 -.323004 .8712 -.323004 1.3615 c 0 1.2783 .795483 2.3702 1.909955 2.7936 c .426608 1.6733 1.92584 2.9111 3.704179 2.9111 l 3.572631 0 c 1.778339 0 3.27757 -1.2378 3.704243 -2.9111 c 1.114407 -.4234 1.90989 -1.5153 1.90989 -2.7936 c 0 -.4903 -.117642 -.9522 -.324983 -1.3615 c .207341 -.4092 .324983 -.871 .324983 -1.3613 c 0 -.4537 -.09971 -.8832 -.279111 -1.2661 c .217291 -.3931 .348903 -.8408 .370849 -1.3148 c .231266 -2.1332 .871212 -3.2798 1.612853 -4.6067 c .875231 -1.564 1.86804 -3.3386 1.86804 -6.426 c 0 -6.1484 -4.922319 -11.1502 -10.97308 -11.1502 l 0 0 z"/>
      <ellipse cx="665.7489" cy="780.86768" fill="#fffed5" rx="3.2629228" ry="1.8164724" transform="matrix(.77435302 .63275383 -.63275383 .77435302 0 0)"/>
    </g>
    <ellipse cx="18.819189" cy="1030.8855" fill="url(#f)" rx="14.800887" ry="14.699972"/>
  </g>
</svg>
