<svg height="48" version="1.1" width="48" xmlns="http://www.w3.org/2000/svg" xmlns:xlink="http://www.w3.org/1999/xlink">
  <radialGradient id="a" cx="24.94243" cy="1024.6066" gradientTransform="matrix(.8722009 .000001263743 -.000001308487 .913732 .57165029 90.687537)" gradientUnits="userSpaceOnUse" r="20.856838">
    <stop offset="0" stop-color="#ff0"/>
    <stop offset="1" stop-color="#ff3f00"/>
  </radialGradient>
  <path d="m -2 1030.3622 c 0 2 6 8 7 7 c 1 -1 -.5 -2.5 0 -3 c .5 -.5 6 -1 8 1 c 2 2 1.5 7.5 1 8 c -.5 .5 -2 -1 -3 0 c -1 1 5 7 7 7 c 2 0 8 -6 7 -7 c -1 -1 -2.5 .5 -3 0 c -.5 -.5 -1 -6 1 -8 c 2 -2 7.5 -1.5 8 -1 c .5 .5 -1 2 0 3 c 1 1 7 -5 7 -7 c 0 -2 -6 -8 -7 -7 c -1 1 .5 2.5 0 3 c -.5 .5 -6 1 -8 -1 c -2 -2 -1.5 -7.5 -1 -8 c .5 -.5 2 1 3 0 c 1 -1 -5 -7 -7 -7 c -2 0 -8 6 -7 7 c 1 1 2.5 -.5 3 0 c .5 .5 1 6 -1 8 c -2 2 -7.5 1.5 -8 1 c -.5 -.5 1 -2 0 -3 c -1 -1 -7 5 -7 7" fill="url(#a)" stroke="#000" stroke-linecap="round" stroke-linejoin="round" stroke-width=".86625487" transform="matrix(0 -1.1745632 1.1745632 0 -1186.2255 45.1421)"/>
</svg>
