/* XPM */
static char * mrtools_xpm[] = {
"64 64 17 1",
" 	c None",
".	c #000000",
"+	c #171717",
"@	c #272727",
"#	c #383838",
"$	c #484848",
"%	c #585858",
"&	c #686868",
"*	c #777777",
"=	c #888888",
"-	c #989898",
";	c #ABABAB",
">	c #B5B5B5",
",	c #C6C6C6",
"'	c #D6D6D6",
")	c #E8E8E8",
"!	c #F9F9F9",
"                                                                ",
"                                                                ",
"                                                                ",
"                                                                ",
"                                                                ",
"                                                                ",
"                                                                ",
"                     ................                           ",
"                    .......................                     ",
"                   .....>>..................                    ",
"               .......-@;>....>-#+=;.........                   ",
"             ........>%+;;&*>>>=+%;>>....;.......               ",
"             ........>@.;>$=>,;*#-;>>....>.......               ",
"             ...;->&$>#.->%-,>-*->>=->&->->-*=......            ",
"           .....&,,&$>$.&>-;>;-;>>;$&;;;-=>>>>;......           ",
"          .....;&*>&%>$.#>>>>,>,,;*##->-*->;;>;......           ",
"        .......;-#;;;>$.+;,>>>>>;-%=%*>*=>,=*>;........         ",
"       ......;;',*-''>#.&;,>>,>=%%&-%*;->>;**>>...........      ",
"       ....,,,,'',,'',=%%==&=>=$$&-*%-;>,-=-->;;;>;.......      ",
"      ....@*->,;=;,',',*#$%##*$@=;;%&-*--&%-;>>>;-;........     ",
"     .....%#&;,>*$=,,->==*@$$$+@=>>&$$@%&@@%=;-**=;;;-=-...     ",
"    .....>>=&;',-$%-;$%;,>$%*$#=>,,,=*&$@$$#&=$%=;;-**=-...     ",
"    ....#&->,,,'>%$$&%$%;,=->=-,,,>,,,,*$**#%&#%;>>-=---....    ",
"   ....=+##%-;;,=%**%#=&=,',,,>,>>;;>>>>>>-$+#+#*-;>;;;-=.....  ",
"   ...;*@%#.@&%;>-&--&>,,,,,>-;-=*&*=->;;>>-*%@#%$#&=-;;=.....  ",
"  ....;-$**%+$*>''>;,'',,>>>>=..........->>;;;&+@#++%;;==...... ",
" .....*;;=;-$&=*-,,,,',,,,>-..............;,,,;=%&$+$*=$&--.....",
"....-*+*>>,>=%##*,,,',,,,=....&=--&+.#&%#...,,,,>-%++#=#@*=@....",
"....;-&%;>,,>-*$&,,,,,,>*....-----;=#$&&&%...;,,,;=#@%=%&=-*&...",
"...-;;--;;-=-;%+&,>,,,,>...*==----;;;&%&*&&...;,,>-%@#&-=%###...",
"...&-;>>;-=*%-@@*&$-,>>>$$==*=-----;>>-&***&..*,,,;-$@#&%#%&%...",
"..%#*;;-;=#*&&*%%+.$;;>,,-&*==-;-=--;,,=***&$.*,',>-$#%=%+&-*%..",
"..$@*;;-=%+&=&=$$$%$&-;;;&&*==-----;;,',;**&%%,,,>;&@@*=%+@=-&..",
"..*&-;-=#%-;>=&&=*-==&--*##**-;=-;;;>>,>;*&%%;,,,;=$%*&#+#&*$#..",
"..--==--&-*=;;;;=##%*$..=#.$*-->>>>>;;>-%%%%=>>,>-*==%#%*-;%@...",
"..$%*--;;;%$%-*............@---;>,,,;--*%$&->>>>>;-%@#%-->;=*...",
"..---=*-;;-&&..............#----;;......#&-=-;>>;*$$$==;;-*&....",
"...=-=&=;;;*.......$&#*....+=--==........$@+@#*---=->>;;-=......",
"....;*%=-=......&$%&*$=*...+==--.............#+@%$&&%*==....... ",
"..............*&=&&***-&...@---;....  .........%$&............  ",
" ............%&*=*&---=&...=>>;;...    .....................    ",
"   .........*====;;>;;;....>>>,;...         ............        ",
"       ...=**&=>>>>,,;-....>>>>,...                             ",
"      ....&&===;;>,>;--...>>;;;....                             ",
"      ...%%*=*>>;>>->-;...>>;;....                              ",
"      ...*=-;;>>>,'->>;,;>,>;.....                              ",
"      ....=-=---;=>;=&$;>,,;.....                               ",
"       .....-----*->-%#=>>>>....                                ",
"       .......=--;;;-=%>>>;....                                 ",
"         ......=;;;;>;...;....                                  ",
"           .....;-;>;;...>....                                  ",
"            ......=-;........                                   ",
"             ......=....>....                                   ",
"               .........>...                                    ",
"                .......>....                                    ",
"                 ......>...                                     ",
"                    .......                                     ",
"                    .......                                     ",
"                     ......                                     ",
"                                                                ",
"                                                                ",
"                                                                ",
"                                                                ",
"                                                                "};
