<?xml version="1.0" encoding="UTF-8" standalone="no"?>
<!-- Created with Inkscape (http://www.inkscape.org/) -->

<svg
   xmlns:dc="http://purl.org/dc/elements/1.1/"
   xmlns:cc="http://creativecommons.org/ns#"
   xmlns:rdf="http://www.w3.org/1999/02/22-rdf-syntax-ns#"
   xmlns:svg="http://www.w3.org/2000/svg"
   xmlns="http://www.w3.org/2000/svg"
   xmlns:xlink="http://www.w3.org/1999/xlink"
   xmlns:inkscape="http://www.inkscape.org/namespaces/inkscape"
   width="45.5"
   height="43.5"
   id="svg2"
   version="1.1"
   inkscape:version="0.91 r13725">
  <defs
     id="defs4">
    <linearGradient
       inkscape:collect="always"
       xlink:href="#linearGradient4232"
       id="linearGradient4238"
       x1="5.9443078"
       y1="1014.022"
       x2="40.058289"
       y2="1029.959"
       gradientUnits="userSpaceOnUse"
       gradientTransform="matrix(0,-0.79995463,-0.79995463,0,841.15836,1049.4613)" />
    <linearGradient
       inkscape:collect="always"
       id="linearGradient4232">
      <stop
         id="stop4236"
         offset="0"
         style="stop-color:#493100;stop-opacity:1" />
      <stop
         style="stop-color:#9e6b00;stop-opacity:1;"
         offset="0.61322409"
         id="stop4242" />
      <stop
         id="stop4234"
         offset="1"
         style="stop-color:#f3a500;stop-opacity:1" />
    </linearGradient>
    <linearGradient
       inkscape:collect="always"
       xlink:href="#linearGradient4224"
       id="linearGradient4230"
       x1="27.109509"
       y1="1016.7151"
       x2="9.9688272"
       y2="1029.8936"
       gradientUnits="userSpaceOnUse"
       gradientTransform="matrix(0,-0.79995463,0.79995463,0,-796.32928,1049.4613)" />
    <linearGradient
       inkscape:collect="always"
       id="linearGradient4224">
      <stop
         style="stop-color:#ffdb83;stop-opacity:1"
         offset="0"
         id="stop4226" />
      <stop
         style="stop-color:#ffc22c;stop-opacity:1"
         offset="1"
         id="stop4228" />
    </linearGradient>
    <linearGradient
       gradientTransform="matrix(0.46940865,0.22850447,-0.26011777,0.53435075,21.71722,999.99014)"
       inkscape:collect="always"
       xlink:href="#linearGradient3801"
       id="linearGradient3808"
       x1="2.2770658"
       y1="21.469494"
       x2="45.786045"
       y2="29.750875"
       gradientUnits="userSpaceOnUse" />
    <linearGradient
       id="linearGradient3801">
      <stop
         style="stop-color:#078a1d;stop-opacity:1"
         offset="0"
         id="stop3804" />
      <stop
         style="stop-color:#1eff45;stop-opacity:1"
         offset="1"
         id="stop3806" />
    </linearGradient>
  </defs>
  <sodipodi:namedview
     id="base"
     pagecolor="#ffffff"
     bordercolor="#666666"
     borderopacity="1.0"
     inkscape:pageopacity="0.0"
     inkscape:pageshadow="2"
     inkscape:zoom="10.416667"
     inkscape:cx="3.1364274"
     inkscape:cy="20.102964"
     inkscape:document-units="px"
     inkscape:current-layer="g3122"
     showgrid="false"
     inkscape:window-width="1920"
     inkscape:window-height="986"
     inkscape:window-x="0"
     inkscape:window-y="27"
     inkscape:window-maximized="1"
     fit-margin-top="0"
     fit-margin-left="0"
     fit-margin-right="0"
     fit-margin-bottom="0">
    <inkscape:grid
       type="xygrid"
       id="grid2985"
       empspacing="5"
       visible="true"
       enabled="true"
       snapvisiblegridlinesonly="true"
       originx="-1.1783278"
       originy="-1.1144575" />
  </sodipodi:namedview>
  <metadata
     id="metadata7">
    <rdf:RDF>
      <cc:Work
         rdf:about="">
        <dc:format>image/svg+xml</dc:format>
        <dc:type
           rdf:resource="http://purl.org/dc/dcmitype/StillImage" />
        <dc:title></dc:title>
      </cc:Work>
    </rdf:RDF>
  </metadata>
  <g
     inkscape:label="Layer 1"
     inkscape:groupmode="layer"
     id="layer1"
     transform="translate(-1.1783278,-1007.7477)">
    <g
       id="g3122"
       transform="matrix(1.2500709,0,0,1.2500709,-6.0017013,-254.39217)">
      <g
         id="g4437"
         transform="translate(0.22017589,-0.17849806)">
        <g
           id="g19"
           transform="matrix(0,-0.0694488,-0.07583479,0,40.222883,1045.8339)" />
        <g
           id="g21"
           transform="matrix(0,-0.0694488,-0.07583479,0,40.222883,1045.8339)" />
        <g
           id="g23"
           transform="matrix(0,-0.0694488,-0.07583479,0,40.222883,1045.8339)" />
        <g
           id="g25"
           transform="matrix(0,-0.0694488,-0.07583479,0,40.222883,1045.8339)" />
        <g
           id="g27"
           transform="matrix(0,-0.0694488,-0.07583479,0,40.222883,1045.8339)" />
        <g
           id="g29"
           transform="matrix(0,-0.0694488,-0.07583479,0,40.222883,1045.8339)" />
        <g
           id="g31"
           transform="matrix(0,-0.0694488,-0.07583479,0,40.222883,1045.8339)" />
        <g
           id="g33"
           transform="matrix(0,-0.0694488,-0.07583479,0,40.222883,1045.8339)" />
        <g
           id="g35"
           transform="matrix(0,-0.0694488,-0.07583479,0,40.222883,1045.8339)" />
        <g
           id="g37"
           transform="matrix(0,-0.0694488,-0.07583479,0,40.222883,1045.8339)" />
        <g
           id="g39"
           transform="matrix(0,-0.0694488,-0.07583479,0,40.222883,1045.8339)" />
        <g
           id="g41"
           transform="matrix(0,-0.0694488,-0.07583479,0,40.222883,1045.8339)" />
        <g
           id="g43"
           transform="matrix(0,-0.0694488,-0.07583479,0,40.222883,1045.8339)" />
        <g
           id="g45"
           transform="matrix(0,-0.0694488,-0.07583479,0,40.222883,1045.8339)" />
        <g
           id="g47"
           transform="matrix(0,-0.0694488,-0.07583479,0,40.222883,1045.8339)" />
        <g
           id="g4433">
          <path
             inkscape:connector-curvature="0"
             style="fill:url(#linearGradient4238);fill-opacity:1;stroke:#000000;stroke-width:0.39997733;stroke-miterlimit:4;stroke-dasharray:none;stroke-opacity:1"
             d="m 36.987686,1021.4033 -19.5802,0 c -0.1649,-0.9596 -0.9393,-1.6922 -1.8641,-1.6922 l -4.3496,0 c -0.9249,0 -1.6991998,0.7326 -1.8641998,1.6922 l -1.4881,0 c -1.0438,0 -1.8978,0.9326 -1.8978,2.0723 l 0,18.7047 c 0,1.1398 0.854,2.0723 1.8978,2.0723 l 29.1461998,0 c 1.0437,0 1.8977,-0.9325 1.8977,-2.0723 l 0,-18.7047 c 0,-1.1397 -0.854,-2.0723 -1.8977,-2.0723 z"
             id="path3" />
          <path
             inkscape:connector-curvature="0"
             style="fill:url(#linearGradient4230);fill-opacity:1;stroke:#000000;stroke-width:0.39997733;stroke-miterlimit:4;stroke-dasharray:none;stroke-opacity:1"
             d="m 8.5312862,1028.2522 c 0.1815,-1.1224 1.184,-2.0407 2.2276998,-2.0407 l 29.1463,0 c 1.0437,0 1.749,0.9183 1.5677,2.0407 l -2.2576,13.9598 c -0.1816,1.1223 -1.184,2.0407 -2.2278,2.0407 l -29.1461998,0 c -1.0437,0 -1.749,-0.9184 -1.5676,-2.0407 l 2.2575,-13.9598 z"
             id="path17" />
        </g>
        <path
           sodipodi:nodetypes="cczzzcc"
           inkscape:connector-curvature="0"
           id="path3031"
           d="m 13.498109,1017.4707 c 5.881026,-9.6954 19.115966,-9.6227 22.306151,0.5229 2.918101,-1.2234 3.566237,-2.5157 4.505057,-2.0587 0.938819,0.4571 -3.759391,11.4354 -5.218405,12.0471 -1.459056,0.6118 -12.333951,-4.4174 -12.07379,-4.9517 0.260085,-0.5342 4.592978,-0.8081 5.541318,-1.9752 -1.883623,-6.8658 -7.962337,-5.4736 -15.060331,-3.5844 z"
           style="fill:url(#linearGradient3808);fill-opacity:1;stroke:#000000;stroke-width:0.55701613px;stroke-linecap:round;stroke-linejoin:round;stroke-opacity:1" />
      </g>
    </g>
  </g>
</svg>
