<?xml version="1.0" encoding="UTF-8" standalone="no"?>
<!-- Created with Inkscape (http://www.inkscape.org/) -->

<svg
   xmlns:dc="http://purl.org/dc/elements/1.1/"
   xmlns:cc="http://creativecommons.org/ns#"
   xmlns:rdf="http://www.w3.org/1999/02/22-rdf-syntax-ns#"
   xmlns:svg="http://www.w3.org/2000/svg"
   xmlns="http://www.w3.org/2000/svg"
   xmlns:xlink="http://www.w3.org/1999/xlink"
   xmlns:inkscape="http://www.inkscape.org/namespaces/inkscape"
   width="32"
   height="32"
   id="svg6430"
   version="1.1"
   inkscape:version="0.48.3.1 r9886">
  <defs
     id="defs6432">
    <linearGradient
       id="linearGradient3776">
      <stop
         style="stop-color:#7aafff;stop-opacity:1;"
         offset="0"
         id="stop3778" />
      <stop
         style="stop-color:#007cff;stop-opacity:1;"
         offset="1"
         id="stop3780" />
    </linearGradient>
    <linearGradient
       inkscape:collect="always"
       xlink:href="#linearGradient3776"
       id="linearGradient3782"
       x1="16"
       y1="1030.3622"
       x2="15"
       y2="1050.3622"
       gradientUnits="userSpaceOnUse" />
  </defs>
  <sodipodi:namedview
     id="base"
     pagecolor="#ffffff"
     bordercolor="#666666"
     borderopacity="1.0"
     inkscape:pageopacity="0.0"
     inkscape:pageshadow="2"
     inkscape:zoom="3.7159935"
     inkscape:cx="-14.932122"
     inkscape:cy="14.150376"
     inkscape:document-units="px"
     inkscape:current-layer="layer1"
     showgrid="true"
     inkscape:window-width="1920"
     inkscape:window-height="1171"
     inkscape:window-x="1920"
     inkscape:window-y="0"
     inkscape:window-maximized="1">
    <inkscape:grid
       empspacing="5"
       visible="true"
       enabled="true"
       snapvisiblegridlinesonly="true"
       type="xygrid"
       id="grid6438" />
  </sodipodi:namedview>
  <metadata
     id="metadata6435">
    <rdf:RDF>
      <cc:Work
         rdf:about="">
        <dc:format>image/svg+xml</dc:format>
        <dc:type
           rdf:resource="http://purl.org/dc/dcmitype/StillImage" />
        <dc:title></dc:title>
      </cc:Work>
    </rdf:RDF>
  </metadata>
  <g
     inkscape:label="Layer 1"
     inkscape:groupmode="layer"
     id="layer1"
     transform="translate(0,-1020.3622)">
    <path
       id="path6360-8"
       style="fill:url(#linearGradient3782);fill-opacity:1;stroke:#000000;stroke-width:1;stroke-linecap:butt;stroke-linejoin:miter;stroke-miterlimit:4;stroke-opacity:1;stroke-dasharray:none"
       d="M 14.536548,1051.7926 C 7.0605196,1051.7926 1,1045.7321 1,1038.256 c 0,-7.476 6.0605196,-13.5365 13.536548,-13.5365 0.966897,0 -0.966897,-2.3904 0,-3.3573 0.966897,-0.9669 6.768274,5.2912 5.801378,7.2249 -0.966896,1.9338 -4.834481,6.2311 -5.801378,5.2642 -0.966897,-0.9668 0.966897,-3.3304 0,-3.3304 -4.272015,0 -7.7351701,3.4631 -7.7351701,7.7351 0,4.2721 3.4631551,7.7352 7.7351701,7.7352 4.272016,0 7.735171,-3.4631 7.735171,-7.7352 0,-0.9669 -2.363524,0.9669 -3.330421,0 -0.966895,-0.9669 3.330421,-4.8343 5.264213,-5.8012 1.933792,-0.967 8.191761,4.8343 7.224864,5.8012 -0.966895,0.9669 -3.357278,-0.9669 -3.357278,0 0,7.4761 -6.060521,13.5366 -13.536549,13.5366 z"
       inkscape:connector-curvature="0"
       sodipodi:nodetypes="sscssscsscssscs" />
  </g>
</svg>
