<svg height="32" version="1.1" width="32" xmlns="http://www.w3.org/2000/svg" xmlns:xlink="http://www.w3.org/1999/xlink">
  <linearGradient id="a" gradientUnits="userSpaceOnUse" x1="16" x2="15" y1="1030.3622" y2="1050.3622">
    <stop offset="0" stop-color="#7aafff"/>
    <stop offset="1" stop-color="#007cff"/>
  </linearGradient>
  <path d="M 14.536548 1051.7926 C 7.0605196 1051.7926 1 1045.7321 1 1038.256 c 0 -7.476 6.0605196 -13.5365 13.536548 -13.5365 c .966897 0 -.966897 -2.3904 0 -3.3573 c .966897 -.9669 6.768274 5.2912 5.801378 7.2249 c -.966896 1.9338 -4.834481 6.2311 -5.801378 5.2642 c -.966897 -.9668 .966897 -3.3304 0 -3.3304 c -4.272015 0 -7.7351701 3.4631 -7.7351701 7.7351 c 0 4.2721 3.4631551 7.7352 7.7351701 7.7352 c 4.272016 0 7.735171 -3.4631 7.735171 -7.7352 c 0 -.9669 -2.363524 .9669 -3.330421 0 c -.966895 -.9669 3.330421 -4.8343 5.264213 -5.8012 c 1.933792 -.967 8.191761 4.8343 7.224864 5.8012 c -.966895 .9669 -3.357278 -.9669 -3.357278 0 c 0 7.4761 -6.060521 13.5366 -13.536549 13.5366 z" fill="url(#a)" stroke="#000" transform="translate(0 -1020.3622)"/>
</svg>
