<svg height="48" version="1.1" width="48" xmlns="http://www.w3.org/2000/svg" xmlns:xlink="http://www.w3.org/1999/xlink">
  <linearGradient id="a">
    <stop offset="0"/>
    <stop offset="1" stop-color="#00b800"/>
  </linearGradient>
  <linearGradient id="b" gradientUnits="userSpaceOnUse" x1="241.7618" x2="256.62399" xlink:href="#a" y1="477.99249" y2="465.27295"/>
  <linearGradient id="c" gradientUnits="userSpaceOnUse" x1="277.0072" x2="264.84692" xlink:href="#a" y1="447.78644" y2="459.43594"/>
  <linearGradient id="d" gradientUnits="userSpaceOnUse" x1="237.75377" x2="269.87085" y1="470.66156" y2="442.51752">
    <stop offset="0" stop-color="#003200"/>
    <stop offset=".25" stop-color="#0f0"/>
    <stop offset=".5" stop-color="#95ff95"/>
    <stop offset=".75" stop-color="#0f0"/>
    <stop offset="1" stop-color="#003200"/>
  </linearGradient>
  <g stroke="#000" stroke-linecap="round" stroke-linejoin="round" transform="translate(-233 -435.36218)">
    <path d="m 274.19678 446.92993 c 4.55831 4.55831 0 7.97705 0 10.2562 c 0 2.27916 5.69789 3.41874 5.69789 5.69789 c 0 2.27917 -13.67494 0 -15.95409 -2.27915 c -2.27916 -2.27916 -5.69789 -17.09367 -3.41874 -17.09367 c 2.27916 0 3.41874 5.69789 5.69789 5.69789 c 2.27916 0 4.55831 -5.69789 0 -10.2562" fill="url(#c)"/>
    <path d="m 244.56775 476.55896 c 4.55831 4.55831 7.97705 0 10.2562 0 c 2.27916 0 3.41874 5.69789 5.69789 5.69789 c 2.27916 0 0 -13.67494 -2.27915 -15.95409 c -2.27916 -2.27916 -17.09367 -5.69789 -17.09367 -3.41874 c 0 2.27916 5.69789 3.41874 5.69789 5.69789 c 0 2.27916 -5.69789 4.55831 -10.2562 0" fill="url(#b)"/>
    <path d="m 244.65322 476.60881 c -1.97289 -1.97289 -5.35905 -5.47142 -8.06251 -8.0269 c -4.55832 -4.55831 -3.41874 -14.81451 5.69789 -23.93113 c 9.11662 -9.11663 19.37282 -10.25621 23.93113 -5.69789 c 2.55548 2.70346 11.2925 11.32812 8.0269 8.06251 c -3.26559 -3.26561 -14.86437 1.05411 -21.70183 7.89158 c -6.83747 6.83746 -12.44989 17.14352 -7.89158 21.70183 z" fill="url(#d)"/>
  </g>
</svg>
