<svg height="48" version="1.1" width="48" xmlns="http://www.w3.org/2000/svg" xmlns:xlink="http://www.w3.org/1999/xlink">
  <linearGradient id="a" gradientTransform="matrix(.98695006 .16102666 -.16102666 .98695006 165.63397 -994.67063)" gradientUnits="userSpaceOnUse" x1="43.748142" x2="8.1399727" y1="1044.3011" y2="1014.1882">
    <stop offset="0" stop-color="#060e18"/>
    <stop offset=".66605896" stop-color="#728eae"/>
    <stop offset="1" stop-color="#c7dbf1"/>
  </linearGradient>
  <linearGradient id="b" gradientUnits="userSpaceOnUse" x1="16.637330669356" x2="32.514663828908" y1="1019.37911381996" y2="1035.21642648786">
    <stop offset="0" stop-color="#394d63"/>
    <stop offset="1" stop-color="#91b8e3"/>
  </linearGradient>
  <linearGradient id="c" gradientTransform="matrix(.98695006 .16102666 -.16102666 .98695006 165.63397 -994.67063)" gradientUnits="userSpaceOnUse" x1="47.87793" x2="6.3895712" y1="1044.144" y2="1009.3572">
    <stop offset="0" stop-color="#1b4069"/>
    <stop offset="1" stop-color="#86b0e0"/>
  </linearGradient>
  <g transform="translate(-.00043338103 -1004.3620491863)">
    <path d="M 25.175781 1.28125 C 20.000802 1.19869 26.550446 6.1912206 19.841797 7.7851562 C 12.68592 9.4852555 17.26393 .94716047 11.121094 4.9921875 c -6.1428518 4.0451258 3.508023 3.2131394 -.88086 9.1152345 c -4.3888825 5.902095 -6.369038 -3.580517 -8.474609 3.466797 c -2.10555486 7.047215 4.7518756 .206391 5.1835938 7.548828 c .4317184 7.342436 -7.18059725 1.351499 -4.2636719 8.103515 c 2.9169408 6.751918 3.7719279 -2.897798 8.8222651 2.449219 c 5.050324 5.347116 -4.631211 5.651908 1.94336 8.949219 c 6.574569 3.297311 1.028161 -4.644744 8.333984 -3.794922 c 7.305825 .849823 .08434 7.305667 7.240235 5.605469 c 7.155876 -1.7001 -2.197539 -4.218546 3.945312 -8.263672 c 6.142836 -4.045027 4.759554 5.54272 9.148438 -.359375 c 4.388882 -5.902095 -4.394634 -1.81792 -2.289063 -8.865234 c 2.105555 -7.047216 7.211015 1.186186 6.779297 -6.15625 c -.431718 -7.342437 -4.536184 1.431605 -7.453125 -5.320313 c -2.916942 -6.751917 6.284714 -3.725248 1.234375 -9.0722655 C 35.340304 3.0513216 37.836289 12.410592 31.261719 9.1132812 C 24.687149 5.8159705 33.680825 2.2189633 26.375 1.3691406 C 25.918386 1.3160267 25.52078 1.286754 25.175781 1.28125 Z M 24 12.892578 A 11.106667 11.106667 0 0 1 35.107422 24 A 11.106667 11.106667 0 0 1 24 35.107422 A 11.106667 11.106667 0 0 1 12.892578 24 A 11.106667 11.106667 0 0 1 24 12.892578 Z" fill="url(#c)" stroke="url(#a)" stroke-miterlimit="2" stroke-width="1.5" transform="translate(0 1004.3622)"/>
    <path d="M 35.106667 1028.3622 A 11.106667 11.106667 0 0 1 24 1039.4688 A 11.106667 11.106667 0 0 1 12.893333 1028.3622 A 11.106667 11.106667 0 0 1 24 1017.2555 a 11.106667 11.106667 0 0 1 11.106667 11.1067 z" fill="none" stroke="url(#b)" stroke-width="1.60000002"/>
  </g>
</svg>
