<?xml version="1.0" encoding="UTF-8" standalone="no"?>
<!-- Created with Inkscape (http://www.inkscape.org/) -->

<svg
   xmlns:dc="http://purl.org/dc/elements/1.1/"
   xmlns:cc="http://creativecommons.org/ns#"
   xmlns:rdf="http://www.w3.org/1999/02/22-rdf-syntax-ns#"
   xmlns:svg="http://www.w3.org/2000/svg"
   xmlns="http://www.w3.org/2000/svg"
   xmlns:xlink="http://www.w3.org/1999/xlink"
   xmlns:sodipodi="http://sodipodi.sourceforge.net/DTD/sodipodi-0.dtd"
   xmlns:inkscape="http://www.inkscape.org/namespaces/inkscape"
   width="48"
   height="48"
   id="svg6430"
   version="1.1"
   inkscape:version="0.91 r13725"
   sodipodi:docname="start.svg">
  <defs
     id="defs6432">
    <linearGradient
       id="linearGradient4201">
      <stop
         id="stop4203"
         offset="0"
         style="stop-color:#bfbfbf;stop-opacity:1" />
      <stop
         id="stop4205"
         offset="1"
         style="stop-color:#373737;stop-opacity:1" />
    </linearGradient>
    <linearGradient
       id="linearGradient4193">
      <stop
         id="stop4195"
         offset="0"
         style="stop-color:#0000ff;stop-opacity:1;" />
      <stop
         style="stop-color:#4949ff;stop-opacity:1"
         offset="0.55897713"
         id="stop4197" />
      <stop
         id="stop4199"
         offset="1"
         style="stop-color:#00002f;stop-opacity:1;" />
    </linearGradient>
    <linearGradient
       id="linearGradient3844">
      <stop
         id="stop3846"
         offset="0"
         style="stop-color:#ffffff;stop-opacity:0.88461536;" />
      <stop
         id="stop3848"
         offset="1"
         style="stop-color:#ffffff;stop-opacity:0.43846154;" />
    </linearGradient>
    <linearGradient
       id="linearGradient5465">
      <stop
         style="stop-color:#ffffff;stop-opacity:0.95384616;"
         offset="0"
         id="stop5467" />
      <stop
         style="stop-color:#ffffff;stop-opacity:0.53076923;"
         offset="1"
         id="stop5469" />
    </linearGradient>
    <linearGradient
       id="linearGradient3794">
      <stop
         style="stop-color:#fdfdfd;stop-opacity:1;"
         offset="0"
         id="stop3796" />
      <stop
         style="stop-color:#606060;stop-opacity:1;"
         offset="1"
         id="stop3798" />
    </linearGradient>
    <linearGradient
       id="linearGradient3783">
      <stop
         style="stop-color:#000000;stop-opacity:1;"
         offset="0"
         id="stop3785" />
      <stop
         style="stop-color:#000000;stop-opacity:0;"
         offset="1"
         id="stop3787" />
    </linearGradient>
    <linearGradient
       id="linearGradient3770">
      <stop
         style="stop-color:#000000;stop-opacity:1;"
         offset="0"
         id="stop3773" />
      <stop
         style="stop-color:#ffffff;stop-opacity:1;"
         offset="1"
         id="stop3775" />
    </linearGradient>
    <linearGradient
       id="linearGradient3761">
      <stop
         style="stop-color:#0000ff;stop-opacity:1;"
         offset="0"
         id="stop3763" />
      <stop
         id="stop3801"
         offset="0.80821919"
         style="stop-color:#0000ff;stop-opacity:1;" />
      <stop
         style="stop-color:#00002f;stop-opacity:1;"
         offset="1"
         id="stop3765" />
    </linearGradient>
    <linearGradient
       id="linearGradient3768">
      <stop
         style="stop-color:#ffffff;stop-opacity:1;"
         offset="0"
         id="stop3770" />
      <stop
         style="stop-color:#ffffff;stop-opacity:0.43076923;"
         offset="1"
         id="stop3772" />
    </linearGradient>
    <radialGradient
       inkscape:collect="always"
       xlink:href="#linearGradient3768"
       id="radialGradient3774"
       cx="23"
       cy="26.000002"
       fx="23"
       fy="26.000002"
       r="24"
       gradientUnits="userSpaceOnUse"
       gradientTransform="matrix(0.83333333,0,0,0.83333335,0.8333331,1.3333318)" />
    <radialGradient
       inkscape:collect="always"
       xlink:href="#linearGradient3761"
       id="radialGradient3799"
       cx="-42.5"
       cy="40.5"
       fx="-42.5"
       fy="40.5"
       r="23"
       gradientUnits="userSpaceOnUse"
       gradientTransform="matrix(1.3166668,0,0,1.3166668,79.958339,-29.32501)" />
    <radialGradient
       inkscape:collect="always"
       xlink:href="#linearGradient3761-3"
       id="radialGradient3799-1"
       cx="-42.5"
       cy="40.5"
       fx="-42.5"
       fy="40.5"
       r="23"
       gradientUnits="userSpaceOnUse"
       gradientTransform="matrix(1.3166668,0,0,1.3166668,79.958339,-29.32501)" />
    <linearGradient
       id="linearGradient3761-3">
      <stop
         style="stop-color:#ff0000;stop-opacity:1;"
         offset="0"
         id="stop3763-7" />
      <stop
         id="stop3801-7"
         offset="0.80821919"
         style="stop-color:#ff0000;stop-opacity:1;" />
      <stop
         style="stop-color:#2f0000;stop-opacity:1;"
         offset="1"
         id="stop3765-7" />
    </linearGradient>
    <clipPath
       clipPathUnits="userSpaceOnUse"
       id="clipPath3932">
      <path
         sodipodi:type="arc"
         style="fill:#000000;fill-opacity:1;stroke:none"
         id="path3934"
         sodipodi:cx="23.925516"
         sodipodi:cy="23.588192"
         sodipodi:rx="27.037779"
         sodipodi:ry="26.940521"
         d="m 50.963295,23.588192 a 27.037779,26.940521 0 1 1 -54.0755577,0 27.037779,26.940521 0 1 1 54.0755577,0 z"
         transform="translate(0,1004.3622)" />
    </clipPath>
    <radialGradient
       inkscape:collect="always"
       xlink:href="#linearGradient3761-33"
       id="radialGradient3799-5"
       cx="-42.5"
       cy="40.5"
       fx="-42.5"
       fy="40.5"
       r="23"
       gradientUnits="userSpaceOnUse"
       gradientTransform="matrix(1.3166668,0,0,1.3166668,79.958339,-29.32501)" />
    <linearGradient
       id="linearGradient3761-33">
      <stop
         style="stop-color:#ff0000;stop-opacity:1;"
         offset="0"
         id="stop3763-5" />
      <stop
         id="stop3801-2"
         offset="0.80821919"
         style="stop-color:#ff0000;stop-opacity:1;" />
      <stop
         style="stop-color:#2f0000;stop-opacity:1;"
         offset="1"
         id="stop3765-9" />
    </linearGradient>
    <clipPath
       clipPathUnits="userSpaceOnUse"
       id="clipPath4027">
      <path
         sodipodi:type="arc"
         style="opacity:0.56370658;fill:#ffffff;fill-opacity:1;stroke:none"
         id="path4029"
         sodipodi:cx="30.830849"
         sodipodi:cy="12.695274"
         sodipodi:rx="18.576315"
         sodipodi:ry="12.546308"
         d="m 49.407164,12.695274 a 18.576315,12.546308 0 1 1 -37.15263,0 18.576315,12.546308 0 1 1 37.15263,0 z"
         transform="matrix(1.3267989,0,0,1.4263566,-16.648335,997.87974)" />
    </clipPath>
    <radialGradient
       inkscape:collect="always"
       xlink:href="#linearGradient5465"
       id="radialGradient5471"
       cx="10.421018"
       cy="1012.4713"
       fx="10.421018"
       fy="1012.4713"
       r="24.647034"
       gradientTransform="matrix(0.55015141,0,0,0.38151973,6.7122842,626.57835)"
       gradientUnits="userSpaceOnUse" />
    <radialGradient
       inkscape:collect="always"
       xlink:href="#linearGradient3794"
       id="radialGradient5473"
       cx="69.236534"
       cy="2.2229593"
       fx="69.236534"
       fy="2.2229593"
       r="25.271166"
       gradientUnits="userSpaceOnUse"
       gradientTransform="matrix(1.1199609,-0.01456771,0.01367393,1.0512475,-5.877308,3.0646378)" />
    <radialGradient
       inkscape:collect="always"
       xlink:href="#linearGradient3761"
       id="radialGradient5475"
       gradientUnits="userSpaceOnUse"
       gradientTransform="matrix(0.98402248,0,0,0.98402248,65.820955,988.50929)"
       cx="-42.5"
       cy="40.5"
       fx="-42.5"
       fy="40.5"
       r="23" />
    <radialGradient
       inkscape:collect="always"
       xlink:href="#linearGradient3761"
       id="radialGradient5521"
       gradientUnits="userSpaceOnUse"
       gradientTransform="matrix(0.98402248,0,0,0.98402248,65.820955,988.50929)"
       cx="-42.5"
       cy="40.5"
       fx="-42.5"
       fy="40.5"
       r="23" />
    <radialGradient
       inkscape:collect="always"
       xlink:href="#linearGradient5465"
       id="radialGradient5523"
       gradientUnits="userSpaceOnUse"
       gradientTransform="matrix(0.55015141,0,0,0.38151973,6.7122842,626.57835)"
       cx="10.421018"
       cy="1012.4713"
       fx="10.421018"
       fy="1012.4713"
       r="24.647034" />
    <radialGradient
       inkscape:collect="always"
       xlink:href="#linearGradient4201"
       id="radialGradient5525"
       gradientUnits="userSpaceOnUse"
       gradientTransform="matrix(1.1199609,-0.01456771,0.01367393,1.0512475,-5.877308,3.0646378)"
       cx="69.236534"
       cy="2.2229593"
       fx="69.236534"
       fy="2.2229593"
       r="25.271166" />
    <radialGradient
       inkscape:collect="always"
       xlink:href="#linearGradient4193"
       id="radialGradient5530"
       gradientUnits="userSpaceOnUse"
       gradientTransform="matrix(0.98402248,0,0,0.98402248,65.820955,988.50929)"
       cx="-42.5"
       cy="40.5"
       fx="-42.5"
       fy="40.5"
       r="23" />
    <radialGradient
       inkscape:collect="always"
       xlink:href="#linearGradient3761-6"
       id="radialGradient5530-9"
       gradientUnits="userSpaceOnUse"
       gradientTransform="matrix(0.98402248,0,0,0.98402248,65.820955,988.50929)"
       cx="-42.5"
       cy="40.5"
       fx="-42.5"
       fy="40.5"
       r="23" />
    <linearGradient
       id="linearGradient3761-6">
      <stop
         style="stop-color:#ff0000;stop-opacity:1;"
         offset="0"
         id="stop3763-73" />
      <stop
         id="stop3801-28"
         offset="0.80821919"
         style="stop-color:#ff0000;stop-opacity:1;" />
      <stop
         style="stop-color:#2f0000;stop-opacity:1;"
         offset="1"
         id="stop3765-75" />
    </linearGradient>
    <radialGradient
       r="23"
       fy="25.009037"
       fx="-50.569687"
       cy="25.009037"
       cx="-50.569687"
       gradientTransform="matrix(0.26086948,-3.7526812e-7,5.0506052e-7,0.3513531,29.192078,1005.5751)"
       gradientUnits="userSpaceOnUse"
       id="radialGradient3051"
       xlink:href="#linearGradient3844"
       inkscape:collect="always" />
    <clipPath
       clipPathUnits="userSpaceOnUse"
       id="clipPath3072">
      <path
         sodipodi:type="arc"
         style="fill:#ffffff;fill-opacity:1;stroke:none"
         id="path3074"
         sodipodi:cx="27.621328"
         sodipodi:cy="16.974636"
         sodipodi:rx="14.783246"
         sodipodi:ry="10.601144"
         d="m 42.404574,16.974636 a 14.783246,10.601144 0 1 1 -29.566492,0 14.783246,10.601144 0 1 1 29.566492,0 z"
         transform="matrix(1.1052632,0,0,0.96330275,-6.2142869,1000.1222)" />
    </clipPath>
    <filter
       inkscape:collect="always"
       id="filter3832">
      <feGaussianBlur
         inkscape:collect="always"
         stdDeviation="1.48125"
         id="feGaussianBlur3834" />
    </filter>
  </defs>
  <sodipodi:namedview
     id="base"
     pagecolor="#ffffff"
     bordercolor="#666666"
     borderopacity="1.0"
     inkscape:pageopacity="0.0"
     inkscape:pageshadow="2"
     inkscape:zoom="5.1409548"
     inkscape:cx="-7.6070361"
     inkscape:cy="10.456749"
     inkscape:document-units="px"
     inkscape:current-layer="layer1"
     showgrid="false"
     inkscape:window-width="1920"
     inkscape:window-height="986"
     inkscape:window-x="0"
     inkscape:window-y="27"
     inkscape:window-maximized="1"
     inkscape:snap-global="true">
    <inkscape:grid
       empspacing="5"
       visible="true"
       enabled="true"
       snapvisiblegridlinesonly="true"
       type="xygrid"
       id="grid6438" />
  </sodipodi:namedview>
  <metadata
     id="metadata6435">
    <rdf:RDF>
      <cc:Work
         rdf:about="">
        <dc:format>image/svg+xml</dc:format>
        <dc:type
           rdf:resource="http://purl.org/dc/dcmitype/StillImage" />
        <dc:title />
      </cc:Work>
    </rdf:RDF>
  </metadata>
  <g
     inkscape:label="Layer 1"
     inkscape:groupmode="layer"
     id="layer1"
     transform="translate(0,-1004.3622)">
    <path
       sodipodi:type="arc"
       style="fill:#ffffff;fill-opacity:1;stroke:none;"
       id="path3042"
       sodipodi:cx="24.703583"
       sodipodi:cy="24.463516"
       sodipodi:rx="13.421631"
       sodipodi:ry="14.58873"
       d="M 38.125214,24.463516 A 13.421631,14.58873 0 0 1 24.703583,39.052246 13.421631,14.58873 0 0 1 11.281952,24.463516 13.421631,14.58873 0 0 1 24.703583,9.8747864 13.421631,14.58873 0 0 1 38.125214,24.463516 Z"
       transform="matrix(1.3188405,0,0,1.24,-7.8765049,997.51841)" />
    <path
       inkscape:connector-curvature="0"
       style="fill:#000000;fill-opacity:1;stroke:none;filter:url(#filter3832)"
       d="m 25.481647,1000.7569 c -16.361437,0 -29.625,13.2636 -29.625,29.625 0,16.3614 13.263563,29.625 29.625,29.625 16.361437,0 29.625,-13.2636 29.625,-29.625 0,-16.3614 -13.263563,-29.625 -29.625,-29.625 z m -0.34375,8.8125 a 3.0003,3.0003 0 0 1 3.34375,3.0313 l 0,11.7812 a 3.0003,3.0003 0 1 1 -6,0 l 0,-11.7812 a 3.0003,3.0003 0 0 1 2.65625,-3.0313 z m 10.65625,6.875 a 3.0003,3.0003 0 0 1 2.40625,1 c 7.004291,7.0043 7.004291,18.4645 0,25.4688 -7.004308,7.0044 -18.433192,7.0044 -25.4375,0 -7.00429,-7.0043 -7.00429,-18.4645 0,-25.4688 a 3.0003,3.0003 0 0 1 2.0625,-0.9062 3.0003,3.0003 0 0 1 2.15625,5.1562 c -4.711437,4.7115 -4.711437,12.2574 0,16.9688 4.711422,4.7115 12.288578,4.7115 17,0 4.711437,-4.7114 4.711437,-12.2573 0,-16.9688 a 3.0003,3.0003 0 0 1 1.8125,-5.25 z"
       id="path2991-7"
       clip-path="url(#clipPath3932)"
       transform="matrix(0.74735877,0,0,0.74735877,6.0633894,259.80669)" />
    <path
       style="fill:url(#radialGradient5530);fill-opacity:1;stroke:none"
       d="m 24,1006.2217 c -12.227864,0 -22.1405037,9.9126 -22.1405037,22.1405 0,12.2279 9.9126397,22.1405 22.1405037,22.1405 12.227863,0 22.140504,-9.9126 22.140504,-22.1405 0,-12.2279 -9.912641,-22.1405 -22.140504,-22.1405 z m -0.256905,6.5861 a 2.2423005,2.2423005 0 0 1 2.498981,2.2654 l 0,8.8049 a 2.2423005,2.2423005 0 1 1 -4.484152,0 l 0,-8.8049 a 2.2423005,2.2423005 0 0 1 1.985171,-2.2654 z m 7.964042,5.1381 a 2.2423005,2.2423005 0 0 1 1.798332,0.7473 c 5.234719,5.2348 5.234719,13.7996 0,19.0343 -5.234731,5.2348 -13.776207,5.2348 -19.010938,0 -5.2347186,-5.2347 -5.2347186,-13.7995 0,-19.0343 a 2.2423005,2.2423005 0 0 1 1.541427,-0.6772 2.2423005,2.2423005 0 0 1 1.611492,3.8535 c -3.521133,3.5212 -3.521133,9.1607 0,12.6818 3.521123,3.5211 9.183977,3.5211 12.705099,0 3.521134,-3.5211 3.521134,-9.1606 0,-12.6818 a 2.2423005,2.2423005 0 0 1 1.354588,-3.9236 z"
       id="path2991"
       inkscape:connector-curvature="0" />
    <path
       sodipodi:type="arc"
       style="fill:none;stroke:url(#radialGradient5525);stroke-width:2.40198016;stroke-linecap:round;stroke-linejoin:round;stroke-miterlimit:4;stroke-opacity:1;stroke-dasharray:none"
       id="path3790"
       sodipodi:cx="87.065262"
       sodipodi:cy="20.628773"
       sodipodi:rx="24.070175"
       sodipodi:ry="24.070175"
       d="M 111.13544,20.628773 A 24.070175,24.070175 0 0 1 87.065262,44.698948 24.070175,24.070175 0 0 1 62.995087,20.628773 24.070175,24.070175 0 0 1 87.065262,-3.4414024 24.070175,24.070175 0 0 1 111.13544,20.628773 Z"
       transform="matrix(0.94969899,0,0,0.94969899,-58.685791,1008.7711)" />
  </g>
</svg>
