<svg height="51.899323" version="1.1" width="43.160236" xmlns="http://www.w3.org/2000/svg" xmlns:xlink="http://www.w3.org/1999/xlink">
  <linearGradient id="a" gradientUnits="userSpaceOnUse" x1="9.2782049" x2="31.38143" y1="1039.9706" y2="1042.4475">
    <stop offset="0" stop-color="#cdcdcd"/>
    <stop offset="1" stop-color="#707070"/>
  </linearGradient>
  <linearGradient id="b" gradientUnits="userSpaceOnUse" x1="14.600302" x2="25.505947" y1="33.21159" y2="34.623379">
    <stop offset="0" stop-color="#1a1a1a" stop-opacity=".72549021"/>
    <stop offset="1" stop-color="#b4b4b4" stop-opacity=".97247708"/>
  </linearGradient>
  <g stroke="#000" transform="matrix(.73254512 .54529849 -.54529849 .73254512 571.1361676 -745.96148)">
    <path d="m 27 1021.3622 c 1 -1 4 -2 4 -5 c 0 -3 -2 -10 -3 -9 c -1 1 3 10 -6 10 c -9 0 -5 -9 -6 -10 c -1 -1 -3 6 -3 9 c 0 3 3 4 4 5 c 1 1 1 14.5 1 16 c 0 1.5 0 15 -1 16 c -1 1 -4 2 -4 5 c 0 3 2 10 3 9 c 1 -1 -3 -10 6 -10 c 9 0 5 9 6 10 c 1 1 3 -6 3 -9 c 0 -3 -3 -4 -4 -5 c -1 -1 -1 -14.5 -1 -16 c 0 -1.5 0 -15 1 -16 z" fill="url(#a)" stroke="#000"/>
    <path d="m 20 23 c 0 8 0 20 0 20 c 0 3 4 3 4 0 l 0 -20 c 0 -3 -4 -3 -4 0 z" fill="url(#b)" stroke="#000" transform="translate(0 1004.3622)"/>
  </g>
</svg>
