<svg height="37" version="1.1" width="57" xmlns="http://www.w3.org/2000/svg" xmlns:xlink="http://www.w3.org/1999/xlink">
  <radialGradient id="a" cx="428.84229" cy="704.40137" gradientTransform="matrix(.12976385 -.00189016 .00147011 .10092702 -24.314115 963.4577)" gradientUnits="userSpaceOnUse" r="251.44968">
    <stop offset="0" stop-color="#8383ff"/>
    <stop offset="1" stop-color="#000050"/>
  </radialGradient>
  <linearGradient id="b" gradientUnits="userSpaceOnUse" x1="15" x2="42" y1="1046.3622" y2="1028.3622">
    <stop offset="0" stop-color="#adfaff"/>
    <stop offset="1" stop-color="#e5feff"/>
  </linearGradient>
  <g transform="translate(.11585607 -1015.3622)">
    <path d="m 26.85033 1051.327 c -.150695 -.03 -.717856 -.113 -1.260356 -.1877 c -2.020386 -.278 -4.756639 -1.1825 -6.520974 -2.157 c -3.421446 -1.8893 -6.361251 -4.7547 -8.46883 -8.2552 c -.637499 -1.0588 -1.71827 -3.375 -2.054118 -4.4022 c -.135766 -.4152 -.309893 -.7548 -.38694 -.7548 c -.07704 0 -.362654 .3436 -.634671 .7638 c -.872814 1.3483 -1.798814 1.9186 -3.141334 1.9351 c -.692264 .018 -.917089 -.043 -1.424751 -.3258 c -1.6533561 -.9207 -2.50245305 -2.9513 -1.97748805 -4.7289 c .51220995 -1.7344 4.25813105 -6.4949 7.01891405 -8.92 c 11.259397 -9.8911 26.709743 -10.5947 38.577861 -1.7572 c 1.774542 1.3216 2.908579 2.3445 4.533286 4.0894 c 2.083186 2.2373 4.325327 5.3952 4.677554 6.5878 c .696241 2.3577 -1.071885 5.0349 -3.341441 5.0596 c -1.308784 .018 -2.251979 -.5462 -3.145061 -1.8701 c -.309407 -.4586 -.623144 -.8337 -.69719 -.8337 c -.07407 0 -.246364 .3396 -.382908 .7548 c -.935284 2.8445 -2.806787 5.9528 -5.008132 8.3181 c -3.272821 3.5169 -7.028997 5.5963 -11.652312 6.4507 c -1.001207 .1847 -4.146753 .3408 -4.711109 .2333 z" fill="url(#a)" stroke="#000" stroke-linejoin="round" stroke-width=".7"/>
    <path d="m 31.509775 1047.4166 c 1.862817 -.3715 2.947 -.7436 4.702593 -1.6138 c 3.89303 -1.9298 7.202972 -5.5355 9.048029 -9.8565 c .596503 -1.3973 1.075297 -2.8875 1.16856 -3.6373 l .06343 -.5103 l -.87416 -.8742 c -2.06626 -2.0666 -4.495748 -3.8225 -6.941031 -5.0166 c -.75852 -.3705 -1.436646 -.6736 -1.506947 -.6736 c -.214595 0 -.149412 .2349 .41634 1.5007 c .824155 1.8437 1.043576 2.8998 1.043576 5.0227 c 0 2.074 -.21665 3.1552 -.980537 4.8923 c -1.332496 3.0305 -3.748062 5.2213 -6.751912 6.1234 c -1.328306 .3988 -3.693248 .3992 -5.034101 0 c -3.658385 -1.0875 -6.470746 -4.1908 -7.473281 -8.2461 c -.208654 -.844 -.251845 -1.319 -.251845 -2.7704 c 0 -2.1228 .219422 -3.1788 1.043577 -5.0227 c .539666 -1.2071 .628296 -1.5006 .453462 -1.5006 c -.174223 0 -1.484796 .6255 -2.662465 1.2705 c -2.04045 1.1176 -3.728707 2.3946 -5.670873 4.2896 l -1.026291 1.0013 l .06364 .512 c .09344 .7513 .571829 2.2407 1.168745 3.6386 c 1.845052 4.3213 5.155 7.9269 9.048029 9.8565 c 2.133735 1.0579 3.650238 1.5067 6.184081 1.8305 c .762997 .098 3.910922 -.045 4.769373 -.2167 z" fill="url(#b)" stroke="#000" stroke-width=".4"/>
    <ellipse cx="33" cy="1028.3622" fill="#fff" fill-opacity=".60526315" rx="2.0365438" ry="2.2447584"/>
  </g>
</svg>
